<svg width="741" height="741" viewBox="0 0 741 741" fill="none" xmlns="http://www.w3.org/2000/svg">
<g clip-path="url(#clip0_35_428)">
<mask id="mask0_35_428" style="mask-type:luminance" maskUnits="userSpaceOnUse" x="0" y="0" width="741" height="741">
<path d="M741 0H0V741H741V0Z" fill="white"/>
</mask>
<g mask="url(#mask0_35_428)">
<path d="M289.95 74.7504C291.112 72.7301 292.35 70.7227 293.631 68.7869L294.794 69.5549C293.53 71.4682 292.307 73.4492 291.159 75.4458L289.95 74.7504ZM287.277 79.6794L288.517 80.316C287.469 82.3659 286.475 84.4703 285.559 86.5733L284.281 86.0173C285.207 83.8877 286.215 81.7558 287.277 79.6794ZM296.838 64.1849C298.219 62.3079 299.674 60.4532 301.167 58.6698L302.235 59.5656C300.761 61.3266 299.325 63.1568 297.962 65.0097L296.838 64.1849ZM282.174 91.2135L283.478 91.7043C282.668 93.862 281.916 96.0676 281.246 98.2572L279.913 97.8484C280.592 95.6306 281.352 93.3982 282.174 91.2135ZM304.873 54.4614C306.456 52.754 308.112 51.0777 309.797 49.4747L310.758 50.4854C309.093 52.0679 307.457 53.7241 305.895 55.4102L304.873 54.4614ZM278.408 103.254L279.761 103.592C279.2 105.822 278.704 108.097 278.286 110.355L276.915 110.103C277.339 107.816 277.84 105.512 278.408 103.254ZM313.972 45.7047C315.736 44.1893 317.577 42.7084 319.441 41.3027L320.281 42.4173C318.439 43.8059 316.622 45.2674 314.879 46.7633L313.972 45.7047ZM276.033 115.644L277.416 115.827C277.114 118.1 276.88 120.413 276.721 122.702L275.33 122.606C275.491 120.287 275.727 117.946 276.033 115.644ZM324.011 38.0369C325.941 36.7288 327.938 35.4679 329.943 34.2854L330.65 35.4875C328.67 36.6539 326.7 37.8989 324.794 39.1904L324.011 38.0369ZM275.083 128.201L276.477 128.225C276.434 130.517 276.463 132.845 276.565 135.142L275.171 135.206C275.07 132.877 275.039 130.521 275.083 128.201ZM334.851 31.5605C336.918 30.4793 339.042 29.451 341.166 28.5046L341.733 29.7781C339.636 30.7125 337.538 31.7259 335.497 32.7934L334.851 31.5605ZM275.558 140.796L276.946 140.665C277.161 142.945 277.452 145.254 277.813 147.529L276.436 147.747C276.071 145.444 275.776 143.104 275.558 140.796ZM346.345 26.3489C348.519 25.5071 350.745 24.7251 352.962 24.0246L353.382 25.3532C351.193 26.0451 348.995 26.8183 346.85 27.6483L346.345 26.3489ZM277.45 153.261L278.812 152.976C279.284 155.224 279.832 157.488 280.444 159.704L279.1 160.073C278.482 157.83 277.926 155.537 277.45 153.261ZM358.35 22.4641C360.602 21.8735 362.901 21.3448 365.182 20.8966L365.45 22.2636C363.197 22.7076 360.928 23.2288 358.703 23.8128L358.35 22.4641ZM280.726 165.442L282.05 165.004C282.772 167.19 283.57 169.379 284.427 171.509L283.133 172.029C282.267 169.872 281.457 167.654 280.726 165.442ZM370.707 19.9528C373.009 19.6183 375.351 19.3515 377.669 19.1632L377.783 20.5523C375.493 20.7398 373.181 21.0019 370.907 21.3327L370.707 19.9528ZM285.354 177.182L286.621 176.598C287.581 178.684 288.622 180.77 289.714 182.797L288.487 183.458C287.38 181.406 286.327 179.293 285.354 177.182ZM383.264 18.8441C385.591 18.7712 387.948 18.7715 390.267 18.8443L390.223 20.2372C387.933 20.1653 385.605 20.1657 383.308 20.2383L383.264 18.8441ZM291.275 188.334L292.467 187.611C293.662 189.582 294.932 191.537 296.243 193.421L295.099 194.217C293.773 192.307 292.484 190.329 291.275 188.334ZM395.856 19.1601C398.178 19.3502 400.519 19.6174 402.811 19.952L402.609 21.3322C400.347 21.0011 398.035 20.7374 395.743 20.5499L395.856 19.1601ZM298.423 198.747L299.526 197.893C300.936 199.717 302.421 201.515 303.941 203.239L302.894 204.161C301.356 202.414 299.852 200.594 298.423 198.747ZM408.34 20.901C410.619 21.3528 412.915 21.8839 415.17 22.4805L414.812 23.8286C412.588 23.2389 410.319 22.7134 408.07 22.2697L408.34 20.901ZM306.705 208.274L307.703 207.301C309.306 208.947 310.983 210.563 312.689 212.105L311.753 213.139C310.026 211.577 308.328 209.94 306.705 208.274ZM420.555 24.052C422.765 24.7583 424.987 25.5464 427.161 26.397L426.654 27.6939C424.507 26.8556 422.312 26.077 420.131 25.3799L420.555 24.052ZM316.01 216.793L316.889 215.713C318.664 217.162 320.515 218.577 322.388 219.918L321.577 221.053C319.679 219.693 317.806 218.26 316.01 216.793ZM432.332 28.5673C434.446 29.5185 436.567 30.5513 438.632 31.6379L437.983 32.8724C435.942 31.798 433.848 30.7775 431.76 29.838L432.332 28.5673ZM326.215 224.203L326.969 223.03C328.896 224.268 330.892 225.468 332.905 226.593L332.224 227.81C330.186 226.67 328.165 225.457 326.215 224.203ZM332.981 226.634C334.993 227.757 337.061 228.829 339.13 229.821L338.526 231.077C336.434 230.072 334.337 228.988 332.301 227.852L332.981 226.634ZM442.819 35.5741L443.528 34.375C445.535 35.5618 447.526 36.8246 449.447 38.128L448.665 39.2823C446.766 37.9933 444.799 36.7464 442.819 35.5741ZM344.18 232.09C346.298 232.979 348.472 233.812 350.643 234.566L350.187 235.882C347.988 235.118 345.785 234.277 343.64 233.378L344.18 232.09ZM453.168 42.5044L454.007 41.3914C455.864 42.7936 457.702 44.2722 459.468 45.7884L458.56 46.8457C456.817 45.3493 455.002 43.8878 453.168 42.5044ZM355.921 236.25C358.125 236.893 360.38 237.474 362.624 237.977L362.319 239.338C360.047 238.829 357.764 238.238 355.529 237.588L355.921 236.25ZM462.669 50.5577L463.63 49.5482C465.317 51.1521 466.975 52.8303 468.555 54.5359L467.533 55.4839C465.972 53.7991 464.336 52.1418 462.669 50.5577ZM368.057 239.051C370.317 239.438 372.62 239.758 374.901 240.003L374.753 241.387C372.443 241.139 370.11 240.817 367.821 240.424L368.057 239.051ZM471.202 59.649L472.271 58.754C473.768 60.5414 475.225 62.4 476.606 64.2783L475.481 65.1028C474.119 63.2491 472.679 61.4129 471.202 59.649ZM380.412 240.45C382.705 240.579 385.031 240.636 387.324 240.621L387.333 242.015C385.011 242.031 382.657 241.972 380.333 241.841L380.412 240.45ZM478.65 69.6572L479.813 68.8898C481.099 70.8384 482.335 72.8493 483.489 74.867L482.279 75.5587C481.14 73.5666 479.919 71.5806 478.65 69.6572ZM392.854 240.442C395.144 240.312 397.463 240.108 399.746 239.832L399.913 241.217C397.6 241.497 395.252 241.703 392.934 241.835L392.854 240.442ZM484.913 80.4379L486.156 79.8085C487.208 81.8806 488.21 84.0185 489.133 86.1587L487.852 86.7106C486.941 84.5952 485.951 82.4856 484.913 80.4379ZM405.224 239.036C407.487 238.648 409.769 238.184 412.006 237.653L412.327 239.01C410.062 239.546 407.752 240.016 405.458 240.409L405.224 239.036ZM489.917 91.8521L491.223 91.3667C492.035 93.5428 492.79 95.7787 493.466 98.0087L492.134 98.4139C491.465 96.2107 490.718 94.0034 489.917 91.8521ZM417.363 236.245C419.571 235.606 421.788 234.886 423.952 234.11L424.421 235.421C422.232 236.208 419.986 236.936 417.752 237.584L417.363 236.245ZM493.607 103.753L494.96 103.415C495.522 105.672 496.022 107.978 496.443 110.266L495.072 110.518C494.656 108.258 494.164 105.982 493.607 103.753ZM429.118 232.11C431.241 231.225 433.363 230.261 435.426 229.247L436.04 230.498C433.952 231.526 431.803 232.5 429.654 233.396L429.118 232.11ZM495.937 115.986L497.319 115.802C497.626 118.115 497.864 120.458 498.023 122.772L496.633 122.868C496.475 120.584 496.24 118.268 495.937 115.986ZM440.337 226.675C442.347 225.556 444.348 224.362 446.283 223.12L447.036 224.291C445.076 225.549 443.05 226.762 441.014 227.894L440.337 226.675ZM496.879 128.396L498.272 128.37C498.316 130.702 498.287 133.06 498.185 135.374L496.793 135.312C496.893 133.027 496.922 130.7 496.879 128.396ZM450.875 220.006C452.742 218.67 454.596 217.252 456.382 215.795L457.263 216.878C455.454 218.352 453.579 219.786 451.685 221.138L450.875 220.006ZM496.414 140.828L497.8 140.959C497.582 143.272 497.287 145.607 496.922 147.903L495.547 147.683C495.906 145.418 496.198 143.111 496.414 140.828ZM460.593 212.179C462.298 210.637 463.975 209.022 465.578 207.377L466.576 208.35C464.953 210.016 463.256 211.652 461.528 213.214L460.593 212.179ZM494.54 153.129L495.903 153.419C495.421 155.702 494.862 157.993 494.239 160.23L492.896 159.855C493.511 157.647 494.065 155.384 494.54 153.129ZM469.341 203.313C470.86 201.589 472.343 199.793 473.749 197.977L474.852 198.829C473.428 200.667 471.925 202.487 470.387 204.235L469.341 203.313ZM491.279 165.15L492.601 165.593C491.867 167.794 491.051 170.004 490.176 172.168L488.883 171.646C489.748 169.509 490.555 167.324 491.279 165.15ZM477.027 193.515C478.336 191.636 479.608 189.685 480.806 187.714L481.997 188.437C480.783 190.432 479.497 192.409 478.171 194.31L477.027 193.515ZM486.676 176.725L487.939 177.313C486.963 179.416 485.905 181.521 484.791 183.575L483.565 182.91C484.666 180.882 485.712 178.802 486.676 176.725Z" fill="#26CEC9"/>
<path d="M343.303 196.143L341.911 196.085C341.961 194.904 342.08 192.968 342.363 190.461L343.749 190.618C343.47 193.084 343.352 194.984 343.303 196.143ZM344.527 185.124L343.154 184.892C343.464 183.061 343.83 181.206 344.244 179.378L345.603 179.685C345.194 181.488 344.833 183.319 344.527 185.124ZM556.237 185.007C555.118 183.49 553.971 182.019 552.832 180.634L553.91 179.748C555.065 181.154 556.222 182.643 557.357 184.179L556.237 185.007ZM549.195 176.463C547.914 175.085 546.6 173.767 545.293 172.546L546.246 171.528C547.576 172.771 548.909 174.112 550.214 175.515L549.195 176.463ZM346.976 174.314L345.633 173.933C346.151 172.122 346.723 170.319 347.332 168.574L348.648 169.035C348.047 170.754 347.485 172.531 346.976 174.314ZM541.114 168.949C539.636 167.785 538.13 166.708 536.634 165.75L537.384 164.576C538.918 165.559 540.465 166.663 541.976 167.855L541.114 168.949ZM485.54 166.202C484.976 166.202 484.393 166.184 483.805 166.151L483.885 164.76C485.79 164.868 487.541 164.794 489.302 164.536L489.505 165.915C488.194 166.108 486.896 166.202 485.54 166.202ZM478.185 165.317C476.346 164.869 474.538 164.244 472.812 163.452L473.393 162.184C475.039 162.939 476.761 163.538 478.513 163.964L478.185 165.317ZM495.025 164.528L494.567 163.212C496.217 162.636 497.827 161.945 499.385 161.276L499.689 161.145L500.238 162.426L499.934 162.558C498.356 163.236 496.721 163.937 495.025 164.528ZM350.638 163.869L349.354 163.326C350.087 161.588 350.878 159.87 351.708 158.22L352.955 158.846C352.138 160.467 351.359 162.158 350.638 163.869ZM531.855 163.042C530.189 162.222 528.486 161.514 526.796 160.934L527.249 159.615C528.994 160.213 530.751 160.945 532.47 161.791L531.855 163.042ZM467.882 160.637C466.402 159.619 464.953 158.467 463.454 157.113L464.389 156.078C465.842 157.39 467.243 158.505 468.67 159.488L467.882 160.637ZM505.367 160.404L504.926 159.083C506.827 158.448 508.636 158.014 510.457 157.753L510.654 159.134C508.916 159.382 507.187 159.798 505.367 160.404ZM521.51 159.52C520.534 159.333 519.537 159.179 518.546 159.067C517.711 158.973 516.883 158.909 516.083 158.876L516.139 157.484C516.972 157.517 517.836 157.585 518.704 157.683C519.73 157.799 520.764 157.957 521.774 158.153L521.51 159.52ZM355.613 154.001L354.417 153.286C355.384 151.664 356.415 150.076 357.484 148.567L358.623 149.372C357.576 150.853 356.563 152.41 355.613 154.001ZM459.453 153.15C458.353 151.974 457.168 150.643 455.725 148.963L456.783 148.054C458.214 149.719 459.384 151.036 460.471 152.199L459.453 153.15ZM361.991 145.003L360.923 144.106C362.134 142.664 363.414 141.266 364.727 139.952L365.712 140.938C364.429 142.223 363.177 143.59 361.991 145.003ZM452.115 144.705C451.046 143.442 449.776 141.955 448.481 140.505L449.523 139.576C450.827 141.038 452.103 142.535 453.18 143.805L452.115 144.705ZM369.774 137.22L368.88 136.15C370.316 134.95 371.824 133.803 373.362 132.738L374.155 133.884C372.65 134.924 371.178 136.048 369.774 137.22ZM444.689 136.475C443.305 135.093 441.981 133.868 440.637 132.736L441.534 131.67C442.908 132.828 444.263 134.078 445.673 135.487L444.689 136.475ZM378.818 130.96L378.132 129.746L378.739 129.406C379.545 128.958 381.051 128.123 383.119 127.137L383.717 128.395C381.689 129.362 380.211 130.184 379.416 130.625L378.818 130.96ZM436.255 129.418C434.721 128.386 433.132 127.452 431.53 126.643L432.161 125.4C433.812 126.233 435.452 127.197 437.035 128.261L436.255 129.418ZM388.793 126.209L388.29 124.909C390.056 124.228 391.851 123.615 393.622 123.089L394.018 124.425C392.282 124.941 390.524 125.54 388.793 126.209ZM426.499 124.498C425.855 124.271 425.188 124.055 424.519 123.855C423.436 123.531 422.324 123.245 421.219 123.001L421.518 121.639C422.658 121.89 423.8 122.185 424.918 122.518C425.608 122.726 426.296 122.949 426.962 123.183L426.499 124.498ZM399.367 123.078L399.085 121.713C400.948 121.33 402.824 121.03 404.657 120.828L404.808 122.213C403.018 122.412 401.187 122.701 399.367 123.078ZM415.795 122.133C414.148 121.965 412.459 121.881 410.775 121.881H410.754L410.304 121.884L410.291 120.489L410.754 120.487H410.773C412.505 120.487 414.24 120.575 415.933 120.746L415.795 122.133Z" fill="#26CEC9"/>
<path d="M327.208 184.589C321.846 184.589 316.248 183 311.691 180.061C307.447 177.326 304.699 173.831 303.953 170.219C302.917 165.203 305.942 161.101 308.866 157.135C311.642 153.372 314.264 149.816 313.032 145.892C311.726 141.735 306.859 139.716 302.565 137.935C298.364 136.193 294.396 134.548 294.183 131.091C294.005 128.201 296.626 126.298 299.401 124.284C302.538 122.006 306.094 119.425 306.733 114.919C307.068 112.57 306.473 110.858 305.844 109.045C305.096 106.891 304.321 104.664 305.37 101.552C306.732 97.5089 310.215 94.3201 314.243 93.4272C320.709 91.9983 327.224 96.3541 328.314 100.915C328.963 103.633 327.595 105.673 326.386 107.474C325.322 109.06 324.404 110.429 324.826 112.053C325.569 114.908 329.912 116.063 334.112 117.181C338.648 118.388 343.339 119.636 344.338 123.193C345.04 125.693 343.5 127.616 341.87 129.651C340.272 131.647 338.62 133.709 338.786 136.583C338.991 140.081 341.744 141.97 344.932 144.157C347.864 146.169 351.186 148.449 352.683 152.407C354.461 157.112 353.513 163.846 350.209 169.981C346.289 177.263 339.895 182.373 332.668 184.001C330.913 184.396 329.076 184.589 327.208 184.589ZM314.545 94.7881C310.983 95.5773 307.9 98.4067 306.691 101.997C305.795 104.657 306.428 106.479 307.161 108.588C307.785 110.39 308.496 112.431 308.114 115.115C307.39 120.207 303.415 123.092 300.219 125.411C297.657 127.272 295.443 128.879 295.574 131.005C295.733 133.593 299.147 135.008 303.099 136.648C307.674 138.545 312.861 140.697 314.362 145.475C315.806 150.074 312.849 154.084 309.989 157.962C307.245 161.683 304.408 165.53 305.319 169.938C305.979 173.133 308.576 176.396 312.446 178.89C318.285 182.656 325.918 184.095 332.362 182.641C339.195 181.102 345.253 176.246 348.983 169.32C352.1 163.531 353.019 157.238 351.379 152.9C350.037 149.35 347.041 147.294 344.143 145.306C340.798 143.011 337.639 140.844 337.395 136.665C337.196 133.256 339.101 130.877 340.783 128.779C342.243 126.956 343.505 125.38 342.997 123.57C342.211 120.779 337.912 119.635 333.754 118.529C329.167 117.307 324.425 116.045 323.477 112.405C322.897 110.174 324.083 108.405 325.229 106.697C326.38 104.982 327.466 103.363 326.959 101.24C326.019 97.3063 320.103 93.5556 314.545 94.7881Z" fill="#FAAD16"/>
<path d="M332.505 200.861L331.131 200.629C337.295 164.331 317.454 123.4 317.253 122.991L318.504 122.376C318.708 122.79 338.745 164.124 332.505 200.861Z" fill="#FAAD16"/>
<path d="M376.593 103.845C376.593 103.845 409.692 166.456 388.345 200.412C366.998 234.37 341.308 243.232 341.308 243.232C341.308 243.232 319.886 208.219 331.087 169.856C342.288 131.493 354.027 123.85 354.027 123.85L360.562 132.376L363.15 112.796C363.15 112.796 366.959 107.169 376.593 103.845Z" fill="#26CEC9"/>
<path d="M341.307 243.93C341.177 243.93 341.045 243.894 340.928 243.819C340.604 243.609 340.512 243.178 340.72 242.855C357.782 216.46 375.725 104.862 375.903 103.737C375.965 103.358 376.321 103.096 376.702 103.159C377.081 103.219 377.342 103.576 377.281 103.957C377.237 104.238 372.716 132.475 366.134 163.626C357.285 205.503 349.13 232.415 341.892 243.612C341.759 243.818 341.536 243.93 341.307 243.93Z" fill="#FFFF00"/>
<path d="M359.686 189.71C359.623 189.71 359.559 189.701 359.496 189.684C355.049 188.429 351.568 178.59 348.853 159.606C346.887 145.851 346.119 132.264 346.111 132.128C346.09 131.744 346.384 131.415 346.77 131.393C347.152 131.371 347.482 131.666 347.503 132.052C348.331 146.97 352.168 186.167 359.875 188.343C360.246 188.447 360.461 188.832 360.357 189.202C360.269 189.509 359.99 189.71 359.686 189.71Z" fill="#FFFF00"/>
<path d="M357.114 206.165C357.062 206.165 357.026 206.165 357.006 206.164C356.621 206.151 356.319 205.83 356.331 205.445C356.343 205.061 356.673 204.756 357.047 204.771C357.198 204.767 372.325 204.837 395.321 177.965C395.572 177.672 396.013 177.639 396.304 177.888C396.596 178.139 396.631 178.579 396.38 178.871C373.636 205.45 358.642 206.165 357.114 206.165Z" fill="#FFFF00"/>
<path d="M365.721 162.898C365.411 162.898 365.125 162.69 365.045 162.373C364.95 162 365.176 161.621 365.549 161.526C380.81 157.635 389.759 137.783 389.846 137.583C390.002 137.231 390.416 137.072 390.767 137.228C391.118 137.384 391.278 137.796 391.122 138.148C391.03 138.358 388.791 143.364 384.571 148.947C380.652 154.127 374.232 160.751 365.892 162.876C365.834 162.892 365.778 162.898 365.721 162.898Z" fill="#FFFF00"/>
<path d="M366.291 170.027C365.545 170.027 364.814 169.952 364.1 169.801C363.723 169.722 363.483 169.351 363.563 168.975C363.642 168.599 364.012 168.358 364.388 168.437C376.55 171.006 391.56 147.172 391.711 146.931C391.915 146.604 392.344 146.505 392.671 146.708C392.998 146.911 393.098 147.342 392.894 147.67C392.856 147.731 388.977 153.922 383.576 159.697C377.155 166.563 371.353 170.027 366.291 170.027Z" fill="#FFFF00"/>
<path d="M351.116 216.11C351.061 216.11 351.005 216.103 350.949 216.089C345.196 214.668 339.717 208.487 334.665 197.718C330.946 189.791 328.842 182.166 328.822 182.089C328.72 181.717 328.938 181.334 329.31 181.233C329.682 181.129 330.065 181.349 330.166 181.721C330.247 182.019 338.476 211.573 351.283 214.736C351.656 214.828 351.885 215.207 351.792 215.58C351.714 215.897 351.429 216.11 351.116 216.11Z" fill="#FFFF00"/>
<path d="M350.094 223.838C350.01 223.838 349.926 223.823 349.843 223.791C330.745 216.432 327.842 202.408 327.727 201.816C327.654 201.438 327.901 201.073 328.279 201C328.658 200.926 329.022 201.173 329.095 201.551C329.124 201.688 332.006 215.424 350.345 222.491C350.704 222.629 350.883 223.033 350.744 223.392C350.637 223.669 350.374 223.838 350.094 223.838Z" fill="#FFFF00"/>
<path d="M243.028 99.7861L234.922 94.3546L240.353 86.248L248.46 91.6796L243.028 99.7861Z" fill="#FAAD16"/>
<path d="M689.996 334.658C688.51 334.658 687.228 333.754 686.729 332.354L686.109 330.61C685.958 330.186 685.647 329.859 685.233 329.688C684.818 329.516 684.366 329.528 683.963 329.721L682.29 330.516C680.947 331.153 679.4 330.884 678.35 329.834C677.301 328.783 677.034 327.238 677.671 325.896L678.467 324.224C678.659 323.819 678.671 323.366 678.498 322.953C678.327 322.538 678 322.228 677.576 322.078L675.833 321.456C674.432 320.958 673.529 319.676 673.529 318.192C673.528 316.705 674.432 315.423 675.833 314.925L677.576 314.307C678 314.156 678.327 313.845 678.498 313.431C678.671 313.016 678.659 312.563 678.467 312.156L677.671 310.485C677.034 309.143 677.301 307.599 678.35 306.548C679.402 305.499 680.947 305.232 682.29 305.869L683.963 306.662C684.368 306.855 684.818 306.866 685.233 306.694C685.647 306.524 685.958 306.195 686.109 305.773L686.729 304.028C687.228 302.628 688.51 301.726 689.996 301.726C691.482 301.726 692.763 302.628 693.261 304.028L693.881 305.773C694.033 306.195 694.343 306.524 694.756 306.694C695.17 306.867 695.623 306.856 696.029 306.662L697.699 305.869C699.046 305.232 700.591 305.499 701.642 306.548C702.691 307.599 702.956 309.143 702.318 310.485L701.523 312.159C701.332 312.564 701.321 313.016 701.493 313.431C701.664 313.845 701.991 314.156 702.413 314.307L704.157 314.925C705.558 315.423 706.463 316.705 706.462 318.192C706.462 319.676 705.558 320.958 704.157 321.456L702.413 322.078C701.991 322.228 701.664 322.538 701.493 322.953C701.321 323.366 701.332 323.819 701.523 324.224L702.318 325.898C702.956 327.239 702.691 328.783 701.642 329.834C700.591 330.884 699.043 331.152 697.699 330.516L696.029 329.721C695.623 329.528 695.171 329.516 694.756 329.688C694.343 329.859 694.033 330.186 693.881 330.61L693.261 332.354C692.763 333.754 691.482 334.658 689.996 334.658ZM684.634 328.174C685.02 328.174 685.404 328.25 685.767 328.4C686.539 328.72 687.141 329.355 687.423 330.143L688.043 331.888C688.404 332.903 689.29 333.264 689.996 333.264C690.703 333.264 691.587 332.903 691.948 331.888L692.568 330.143C692.848 329.355 693.451 328.72 694.224 328.4C694.996 328.079 695.873 328.101 696.628 328.461L698.3 329.255C699.273 329.718 700.155 329.35 700.654 328.85C701.153 328.351 701.522 327.47 701.06 326.496L700.263 324.821C699.905 324.067 699.884 323.191 700.204 322.419C700.523 321.646 701.159 321.043 701.947 320.763L703.69 320.142C704.706 319.781 705.07 318.898 705.07 318.192C705.07 317.485 704.707 316.6 703.69 316.239L701.947 315.621C701.159 315.34 700.523 314.736 700.204 313.963C699.884 313.191 699.905 312.316 700.263 311.56L701.06 309.888C701.522 308.915 701.153 308.033 700.654 307.534C700.155 307.034 699.273 306.663 698.3 307.126L696.628 307.923C695.873 308.281 694.996 308.303 694.224 307.982C693.452 307.662 692.848 307.029 692.568 306.241L691.948 304.496C691.587 303.481 690.703 303.117 689.996 303.117C689.29 303.117 688.404 303.481 688.043 304.496L687.423 306.241C687.141 307.029 686.54 307.662 685.767 307.982C684.996 308.303 684.118 308.281 683.364 307.923L681.69 307.126C680.717 306.663 679.836 307.034 679.338 307.534C678.839 308.033 678.469 308.915 678.932 309.888L679.727 311.56C680.085 312.316 680.106 313.191 679.786 313.963C679.467 314.736 678.832 315.34 678.044 315.621L676.299 316.239C675.283 316.6 674.922 317.485 674.922 318.192C674.922 318.898 675.284 319.781 676.299 320.142L678.044 320.763C678.832 321.043 679.467 321.646 679.786 322.419C680.106 323.191 680.085 324.067 679.727 324.821L678.932 326.496C678.469 327.47 678.839 328.351 679.338 328.85C679.836 329.35 680.717 329.718 681.69 329.255L683.364 328.461C683.764 328.269 684.2 328.174 684.634 328.174ZM689.996 325.654C685.882 325.654 682.534 322.306 682.534 318.192C682.534 314.078 685.882 310.729 689.996 310.729C694.111 310.729 697.457 314.078 697.457 318.192C697.457 322.306 694.111 325.654 689.996 325.654ZM689.996 312.123C686.651 312.123 683.928 314.846 683.928 318.192C683.928 321.537 686.651 324.259 689.996 324.259C693.342 324.259 696.063 321.537 696.063 318.192C696.063 314.846 693.342 312.123 689.996 312.123Z" fill="#FAAD16"/>
<path d="M426.961 86.3231C425.475 86.3231 424.193 85.4203 423.694 84.0199L423.074 82.2748C422.923 81.8512 422.613 81.5239 422.2 81.3535C421.785 81.1806 421.331 81.1929 420.928 81.3856L419.257 82.1809C417.913 82.8182 416.365 82.549 415.314 81.4992C414.265 80.4482 413.999 78.9045 414.636 77.562L415.432 75.8899C415.623 75.4848 415.636 75.0328 415.463 74.619C415.292 74.2041 414.965 73.8929 414.541 73.7434L412.799 73.121C411.398 72.6233 410.494 71.3414 410.494 69.8569C410.493 68.3699 411.398 67.0892 412.799 66.5915L414.541 65.9716C414.965 65.8209 415.292 65.5097 415.463 65.096C415.636 64.681 415.623 64.229 415.432 63.8227L414.636 62.1505C413.999 60.808 414.265 59.2643 415.314 58.2133C416.367 57.1636 417.913 56.8968 419.257 57.5341L420.928 58.3269C421.333 58.5196 421.785 58.5307 422.2 58.359C422.613 58.1886 422.923 57.8613 423.074 57.439L423.694 55.6927C424.193 54.2934 425.475 53.3906 426.961 53.3906C428.447 53.3906 429.728 54.2934 430.227 55.6927L430.846 57.439C430.996 57.8613 431.308 58.1886 431.721 58.359C432.135 58.5319 432.588 58.5196 432.993 58.3269L434.664 57.5341C436.009 56.8968 437.554 57.1636 438.607 58.2133C439.656 59.2643 439.921 60.808 439.283 62.1505L438.489 63.8239C438.298 64.229 438.285 64.681 438.458 65.096C438.629 65.5097 438.956 65.8209 439.38 65.9716L441.122 66.5915C442.523 67.0892 443.428 68.3699 443.427 69.8569C443.427 71.3414 442.523 72.6233 441.122 73.121L439.38 73.7434C438.956 73.8929 438.629 74.2041 438.458 74.619C438.285 75.0328 438.298 75.4848 438.489 75.8899L439.283 77.5633C439.921 78.9045 439.656 80.4482 438.607 81.4992C437.554 82.549 436.008 82.817 434.664 82.1809L432.993 81.3856C432.588 81.1929 432.136 81.1806 431.721 81.3535C431.308 81.5239 430.996 81.8512 430.846 82.2748L430.227 84.0199C429.728 85.4203 428.447 86.3231 426.961 86.3231ZM421.599 79.8394C421.985 79.8394 422.37 79.9147 422.732 80.0654C423.505 80.3853 424.108 81.02 424.388 81.808L425.008 83.553C425.369 84.5682 426.254 84.9301 426.961 84.9301C427.668 84.9301 428.552 84.5682 428.913 83.553L429.532 81.808C429.813 81.02 430.416 80.3853 431.189 80.0654C431.961 79.7443 432.838 79.7665 433.592 80.1259L435.265 80.92C436.238 81.3831 437.12 81.0151 437.619 80.5149C438.118 80.016 438.487 79.1342 438.024 78.161L437.228 76.4876C436.87 75.733 436.85 74.8574 437.17 74.0843C437.489 73.3124 438.124 72.7097 438.912 72.4294L440.657 71.8082C441.672 71.4476 442.032 70.5633 442.032 69.8569C442.032 69.1505 441.673 68.265 440.657 67.9043L438.912 67.2856C438.124 67.0053 437.489 66.4014 437.17 65.6282C436.85 64.8564 436.87 63.9808 437.228 63.2249L438.024 61.5527C438.487 60.5796 438.118 59.6978 437.619 59.1988C437.12 58.6987 436.238 58.3294 435.265 58.7925L433.592 59.5879C432.838 59.946 431.961 59.9695 431.189 59.6484C430.417 59.3285 429.813 58.6937 429.532 57.9058L428.913 56.1607C428.552 55.1456 427.668 54.7825 426.961 54.7825C426.254 54.7825 425.369 55.1456 425.008 56.1607L424.388 57.9058C424.108 58.6937 423.504 59.3285 422.732 59.6484C421.96 59.9695 421.083 59.946 420.329 59.5879L418.655 58.7925C417.682 58.3294 416.801 58.6987 416.302 59.1988C415.804 59.6978 415.434 60.5796 415.897 61.5527L416.691 63.2249C417.05 63.9808 417.071 64.8564 416.751 65.6282C416.432 66.4014 415.797 67.0053 415.009 67.2856L413.264 67.9043C412.248 68.265 411.889 69.1505 411.889 69.8569C411.889 70.5633 412.249 71.4476 413.264 71.8082L415.009 72.4294C415.797 72.7097 416.432 73.3124 416.751 74.0843C417.071 74.8574 417.05 75.733 416.691 76.4876L415.897 78.161C415.434 79.1342 415.804 80.016 416.302 80.5149C416.801 81.0151 417.682 81.3831 418.655 80.92L420.329 80.1259C420.729 79.9345 421.165 79.8394 421.599 79.8394ZM426.961 77.3188C422.847 77.3188 419.499 73.9707 419.499 69.8569C419.499 65.7431 422.847 62.395 426.961 62.395C431.076 62.395 434.422 65.7431 434.422 69.8569C434.422 73.9707 431.076 77.3188 426.961 77.3188ZM426.961 63.7881C423.615 63.7881 420.893 66.5113 420.893 69.8569C420.893 73.2025 423.615 75.9244 426.961 75.9244C430.307 75.9244 433.028 73.2025 433.028 69.8569C433.028 66.5113 430.307 63.7881 426.961 63.7881Z" fill="#FAAD16"/>
<path d="M638.914 103.863C638.749 103.863 638.583 103.806 638.451 103.688C638.164 103.432 638.137 102.992 638.393 102.704C639.958 100.942 642.205 99.9307 644.56 99.9307C646.761 99.9307 648.832 100.789 650.391 102.346C650.663 102.618 650.663 103.06 650.391 103.332C650.118 103.604 649.677 103.604 649.404 103.332C648.11 102.038 646.391 101.325 644.56 101.325C642.603 101.325 640.736 102.165 639.435 103.629C639.298 103.785 639.105 103.863 638.914 103.863Z" fill="#FAAD16"/>
<path d="M631.434 97.8606C631.26 97.8606 631.087 97.7964 630.951 97.6667C630.674 97.4012 630.664 96.9615 630.93 96.6824C634.561 92.8872 639.453 90.7964 644.704 90.7964C649.794 90.7964 654.58 92.7773 658.179 96.3774C658.452 96.6503 658.452 97.0912 658.179 97.3641C657.907 97.6358 657.466 97.6358 657.193 97.3641C653.858 94.0284 649.421 92.1895 644.704 92.1895C639.837 92.1895 635.303 94.1284 631.938 97.6469C631.8 97.789 631.616 97.8606 631.434 97.8606Z" fill="#FAAD16"/>
<path d="M624.728 91.2768C624.553 91.2768 624.379 91.2113 624.243 91.0817C623.966 90.8137 623.959 90.374 624.227 90.0961C629.646 84.4682 636.933 81.3696 644.744 81.3696C652.351 81.3696 659.503 84.3312 664.884 89.7121C665.156 89.985 665.156 90.4259 664.884 90.6976C664.611 90.9705 664.17 90.9705 663.899 90.6976C658.781 85.581 651.979 82.7627 644.744 82.7627C637.314 82.7627 630.383 85.7107 625.228 91.0631C625.093 91.2052 624.91 91.2768 624.728 91.2768Z" fill="#FAAD16"/>
<path d="M644.501 117.042C642.502 117.042 640.873 115.416 640.873 113.417C640.873 111.416 642.502 109.788 644.501 109.788C646.5 109.788 648.127 111.416 648.127 113.417C648.127 115.416 646.5 117.042 644.501 117.042ZM644.501 111.182C643.271 111.182 642.269 112.185 642.269 113.417C642.269 114.648 643.271 115.648 644.501 115.648C645.732 115.648 646.733 114.648 646.733 113.417C646.733 112.185 645.732 111.182 644.501 111.182Z" fill="#FAAD16"/>
<path d="M228.692 144.342C228.692 144.342 225.177 157.577 236.424 163.807C237.298 164.291 243.313 159.828 243.313 159.828C243.313 159.828 243.969 162.728 244.782 164.894C245.086 165.705 243.101 165.705 243.437 166.448C247.116 174.58 262.914 165.985 257.166 163.281C252.234 160.962 250.473 154.677 250.473 154.677C250.473 154.677 237.736 137.058 228.692 144.342Z" fill="#D19474"/>
<path d="M228.235 147.414C228.235 147.414 229.058 145.671 231.194 144.63C235.401 142.58 242.24 146.627 242.24 146.627C243.801 149.343 246.45 152.65 250.474 154.675C253.347 152.446 254.044 150.52 254.126 149.139C254.216 147.605 253.503 147.257 253.196 144.492C252.854 141.402 253.618 140.75 252.848 139.496C251.877 137.919 250.525 138.734 248.782 136.826C247.445 135.361 247.562 134.137 246.111 133.457C245.637 133.233 245.052 133.189 243.904 133.109C241.481 132.937 241.383 133.263 239.954 133.109C237.705 132.865 237.325 131.995 234.959 131.946C234.449 131.935 233.844 131.927 233.079 132.102C231.296 132.507 230.839 133.657 229.398 134.194C226.195 135.387 224.639 134.347 223.694 135.603C222.695 136.931 224.275 138.301 223.279 140.75C222.548 142.549 221.3 142.782 221.385 144.004C221.49 145.508 223.476 146.489 224.097 146.796C225.833 147.654 227.491 147.521 228.235 147.414Z" fill="black"/>
<path d="M241.204 146.832C241.084 146.618 241.085 146.361 241.208 146.149C241.633 145.418 242.764 143.907 244.369 145.034C246.133 146.271 245.364 149.051 244.077 150.241C243.753 150.539 243.231 150.443 243.015 150.059L241.204 146.832Z" fill="#D19474"/>
<path d="M227.241 178.833C227.241 178.833 232.352 162.407 243.93 165.776C243.93 165.776 245.015 168.262 250.939 168.262C256.863 168.262 257.167 163.281 257.167 163.281C257.167 163.281 267.376 162.715 269.932 167.479C272.487 172.241 273.475 181.273 273.475 181.273L227.241 178.833Z" fill="#FAAF3A"/>
<path d="M626.409 584.18C626.409 592.299 518.317 598.881 384.978 598.881C251.64 598.881 143.548 592.299 143.548 584.18C143.548 576.062 251.64 569.479 384.978 569.479C518.317 569.479 626.409 576.062 626.409 584.18Z" fill="#E6E6E6"/>
<path d="M461.02 565.312H309.549C309.549 565.312 339.336 536.096 335.124 514.761H435.443C431.663 549.636 461.02 565.312 461.02 565.312Z" fill="#00006C"/>
<path d="M596.826 514.76H173.744C157.405 514.76 144.162 501.514 144.162 485.176V208.765C144.162 192.426 157.405 179.182 173.744 179.182H596.826C613.164 179.182 626.408 192.426 626.408 208.765V485.176C626.408 501.514 613.164 514.76 596.826 514.76Z" fill="#00006C"/>
<path d="M458.443 584.195H312.126C308.86 584.195 306.211 581.546 306.211 578.279V571.228C306.211 567.961 308.86 565.312 312.126 565.312H458.443C461.711 565.312 464.36 567.961 464.36 571.228V578.279C464.36 581.546 461.711 584.195 458.443 584.195Z" fill="#26CEC9"/>
<path d="M603.541 490.552H167.029C165.395 490.552 164.071 489.227 164.071 487.593V206.349C164.071 204.715 165.395 203.39 167.029 203.39H603.541C605.174 203.39 606.5 204.715 606.5 206.349V487.593C606.5 489.227 605.174 490.552 603.541 490.552Z" fill="#CCCCCC"/>
<path d="M589.726 243.834H179.148C175.892 243.834 173.253 241.195 173.253 237.941V218.386C173.253 215.13 175.892 212.492 179.148 212.492H589.726C592.981 212.492 595.619 215.13 595.619 218.386V237.941C595.619 241.195 592.981 243.834 589.726 243.834Z" fill="#F8F7F8"/>
<path d="M363.1 232.579H316.696C314.865 232.579 313.381 231.095 313.381 229.264V228.925C313.381 227.093 314.865 225.609 316.696 225.609H363.1C364.93 225.609 366.415 227.093 366.415 228.925V229.264C366.415 231.095 364.93 232.579 363.1 232.579Z" fill="#CCCCCC"/>
<path d="M436.342 232.718H390.277C388.354 232.718 386.793 231.158 386.793 229.233C386.793 227.309 388.354 225.748 390.277 225.748H436.342C438.267 225.748 439.827 227.309 439.827 229.233C439.827 231.158 438.267 232.718 436.342 232.718Z" fill="#CCCCCC"/>
<path d="M289.518 232.718H243.453C241.529 232.718 239.969 231.158 239.969 229.233C239.969 227.309 241.529 225.748 243.453 225.748H289.518C291.442 225.748 293.002 227.309 293.002 229.233C293.002 231.158 291.442 232.718 289.518 232.718Z" fill="#CCCCCC"/>
<path d="M509.755 232.718H463.69C461.766 232.718 460.207 231.158 460.207 229.233C460.207 227.309 461.766 225.748 463.69 225.748H509.755C511.68 225.748 513.24 227.309 513.24 229.233C513.24 231.158 511.68 232.718 509.755 232.718Z" fill="#CCCCCC"/>
<path d="M583.167 232.049H537.103C535.178 232.049 533.617 230.488 533.617 228.564C533.617 226.64 535.178 225.079 537.103 225.079H583.167C585.092 225.079 586.651 226.64 586.651 228.564C586.651 230.488 585.092 232.049 583.167 232.049Z" fill="#CCCCCC"/>
<path d="M191.631 237.753C186.334 237.753 182.039 233.459 182.039 228.162C182.039 222.866 186.334 218.573 191.631 218.573C196.928 218.573 201.221 222.866 201.221 228.162C201.221 233.459 196.928 237.753 191.631 237.753Z" fill="#FAAD16"/>
<path d="M299.118 481.553H180.119C176.026 481.553 172.709 478.234 172.709 474.143V364.847C172.709 360.754 176.026 357.437 180.119 357.437H299.118C303.21 357.437 306.528 360.754 306.528 364.847V474.143C306.528 478.234 303.21 481.553 299.118 481.553Z" fill="#F8F7F8"/>
<path d="M296.006 446.325H184.331C182.765 446.325 181.486 445.044 181.486 443.478V443.187C181.486 441.621 182.765 440.34 184.331 440.34H296.006C297.571 440.34 298.85 441.621 298.85 443.187V443.478C298.85 445.044 297.571 446.325 296.006 446.325Z" fill="#CCCCCC"/>
<path d="M296.006 458.081H184.331C182.765 458.081 181.486 456.801 181.486 455.235V454.943C181.486 453.377 182.765 452.097 184.331 452.097H296.006C297.571 452.097 298.85 453.377 298.85 454.943V455.235C298.85 456.801 297.571 458.081 296.006 458.081Z" fill="#CCCCCC"/>
<path d="M232.239 469.84H184.331C182.765 469.84 181.485 468.56 181.485 466.994V466.702C181.485 465.136 182.765 463.855 184.331 463.855H232.239C233.805 463.855 235.086 465.136 235.086 466.702V466.994C235.086 468.56 233.805 469.84 232.239 469.84Z" fill="#CCCCCC"/>
<path d="M291.429 429.368H188.895C184.819 429.368 181.485 426.035 181.485 421.958V375.894C181.485 371.818 184.819 368.485 188.895 368.485H291.429C295.505 368.485 298.839 371.818 298.839 375.894V421.958C298.839 426.035 295.505 429.368 291.429 429.368Z" fill="#0095FF"/>
<path d="M441.751 481.553H324.892C320.209 481.553 316.412 477.756 316.412 473.073V365.919C316.412 361.234 320.209 357.437 324.892 357.437H441.751C446.435 357.437 450.231 361.234 450.231 365.919V473.073C450.231 477.756 446.435 481.553 441.751 481.553Z" fill="#F8F7F8"/>
<path d="M439.709 446.325H328.034C326.47 446.325 325.189 445.044 325.189 443.478V443.187C325.189 441.621 326.47 440.34 328.034 440.34H439.709C441.274 440.34 442.555 441.621 442.555 443.187V443.478C442.555 445.044 441.274 446.325 439.709 446.325Z" fill="#CCCCCC"/>
<path d="M439.709 458.081H328.034C326.47 458.081 325.189 456.801 325.189 455.235V454.943C325.189 453.377 326.47 452.097 328.034 452.097H439.709C441.274 452.097 442.555 453.377 442.555 454.943V455.235C442.555 456.801 441.274 458.081 439.709 458.081Z" fill="#CCCCCC"/>
<path d="M418.391 469.84H328.181C326.536 469.84 325.189 468.493 325.189 466.848C325.189 465.202 326.536 463.855 328.181 463.855H418.391C420.036 463.855 421.382 465.202 421.382 466.848C421.382 468.493 420.036 469.84 418.391 469.84Z" fill="#CCCCCC"/>
<path d="M435.133 429.368H332.599C328.523 429.368 325.189 426.035 325.189 421.958V375.894C325.189 371.818 328.523 368.485 332.599 368.485H435.133C439.209 368.485 442.543 371.818 442.543 375.894V421.958C442.543 426.035 439.209 429.368 435.133 429.368Z" fill="#26CEC9"/>
<path d="M586.615 481.553H469.758C465.074 481.553 461.276 477.756 461.276 473.073V365.919C461.276 361.234 465.074 357.437 469.758 357.437H586.615C591.298 357.437 595.096 361.234 595.096 365.919V473.073C595.096 477.756 591.298 481.553 586.615 481.553Z" fill="#F8F7F8"/>
<path d="M584.573 446.325H472.898C471.334 446.325 470.053 445.044 470.053 443.478V443.187C470.053 441.621 471.334 440.34 472.898 440.34H584.573C586.138 440.34 587.419 441.621 587.419 443.187V443.478C587.419 445.044 586.138 446.325 584.573 446.325Z" fill="#CCCCCC"/>
<path d="M584.573 458.081H472.898C471.334 458.081 470.053 456.801 470.053 455.235V454.943C470.053 453.377 471.334 452.097 472.898 452.097H584.573C586.138 452.097 587.419 453.377 587.419 454.943V455.235C587.419 456.801 586.138 458.081 584.573 458.081Z" fill="#CCCCCC"/>
<path d="M520.808 469.84H472.9C471.334 469.84 470.053 468.56 470.053 466.994V466.702C470.053 465.136 471.334 463.855 472.9 463.855H520.808C522.374 463.855 523.654 465.136 523.654 466.702V466.994C523.654 468.56 522.374 469.84 520.808 469.84Z" fill="#CCCCCC"/>
<path d="M579.998 429.368H477.463C473.387 429.368 470.053 426.035 470.053 421.958V375.894C470.053 371.818 473.387 368.485 477.463 368.485H579.998C584.073 368.485 587.408 371.818 587.408 375.894V421.958C587.408 426.035 584.073 429.368 579.998 429.368Z" fill="#FAAD16"/>
<path d="M588.052 346.97H180.297C176.408 346.97 173.254 343.818 173.254 339.928V260.337C173.254 256.447 176.408 253.293 180.297 253.293H588.052C591.941 253.293 595.096 256.447 595.096 260.337V339.928C595.096 343.818 591.941 346.97 588.052 346.97Z" fill="#F8F7F8"/>
<path d="M459.641 292.17H310.929C309.728 292.17 308.753 291.197 308.753 289.996C308.753 288.793 309.728 287.818 310.929 287.818H459.641C460.844 287.818 461.817 288.793 461.817 289.996C461.817 291.197 460.844 292.17 459.641 292.17Z" fill="#CCCCCC"/>
<path d="M437.848 302.8H310.931C309.728 302.8 308.753 301.827 308.753 300.626C308.753 299.423 309.728 298.448 310.931 298.448H437.848C439.051 298.448 440.024 299.423 440.024 300.626C440.024 301.827 439.051 302.8 437.848 302.8Z" fill="#CCCCCC"/>
<path d="M432.68 276.823H337.891C335.581 276.823 333.709 274.951 333.709 272.642C333.709 270.332 335.581 268.46 337.891 268.46H432.68C434.989 268.46 436.863 270.332 436.863 272.642C436.863 274.951 434.989 276.823 432.68 276.823Z" fill="#0095FF"/>
<path d="M403.051 328.597H367.521C363.875 328.597 360.89 325.614 360.89 321.969V321.288C360.89 317.641 363.875 314.659 367.521 314.659H403.051C406.697 314.659 409.68 317.641 409.68 321.288V321.969C409.68 325.614 406.697 328.597 403.051 328.597Z" fill="#FAAD16"/>
<path d="M435.187 523.772H335.19C335.19 523.772 335.529 520.537 335.529 519.454C335.529 516.91 335.126 514.761 335.126 514.761H435.445C435.445 514.761 435.128 518.375 435.128 519.454C435.128 520.534 435.187 523.772 435.187 523.772Z" fill="#CCCCCC"/>
<path d="M258.97 176.707C257.905 177.297 257.29 181.123 257.29 181.123C257.209 181.395 257.469 181.658 257.862 181.699C259.314 181.847 262.722 182.265 263.143 181.807C264.786 180.021 266.083 177.041 265.641 176.707C264.409 175.778 259.819 176.237 258.97 176.707Z" fill="#D19474"/>
<path d="M218.197 177.109C217.133 177.698 216.516 181.525 216.516 181.525C216.436 181.796 216.697 182.06 217.089 182.1C218.542 182.249 221.949 182.668 222.37 182.209C224.014 180.425 225.311 177.442 224.869 177.109C223.636 176.179 219.046 176.638 218.197 177.109Z" fill="#D19474"/>
<path d="M364.099 590.86C368.556 593.633 372.711 599.655 371.263 604.396C369.416 610.445 359.646 610.465 359.202 615.155C358.786 619.55 367.194 621.382 367.005 625.52C366.764 630.803 352.625 637.752 341.213 633.513C332.563 630.302 326.103 620.893 328.135 616.589C329.96 612.723 337.635 615.085 340.402 610.267C342.882 605.947 337.914 601.952 339.787 596.954C342.265 590.337 355.413 585.457 364.099 590.86Z" fill="#00006C"/>
<path d="M306.805 630.701C295.5 634.787 281.948 628.149 282.022 624.237C282.094 620.405 295.253 618.692 294.951 615.616C294.607 612.089 277.095 612.157 276.634 608.074C276.328 605.362 283.967 604.586 286.331 598.375C288.549 592.55 283.987 587.554 286.331 585.445C288.475 583.517 292.318 587.668 300.34 587.601C306.641 587.548 309.652 584.94 311.115 586.523C313.437 589.034 306.407 596.194 308.96 600.53C311.336 604.569 319.066 601.152 321.89 604.842C325.715 609.835 319.275 626.197 306.805 630.701Z" fill="#005AFF"/>
<path d="M311.115 649.716C311.079 649.716 311.043 649.714 311.009 649.708C310.627 649.65 310.367 649.293 310.425 648.914C312.525 635.261 299.826 605.414 299.699 605.116C299.547 604.761 299.711 604.351 300.064 604.2C300.417 604.047 300.827 604.212 300.979 604.565C301.51 605.805 313.964 635.082 311.803 649.125C311.75 649.471 311.452 649.716 311.115 649.716Z" fill="#0095FF"/>
<path d="M326.169 659.819C325.792 659.819 325.465 659.537 325.419 659.153C323.729 645.48 351.303 608.441 352.477 606.872C352.728 606.536 353.202 606.468 353.538 606.719C353.874 606.969 353.942 607.445 353.691 607.779C353.407 608.16 325.309 645.898 326.923 658.969C326.975 659.383 326.679 659.761 326.263 659.812C326.231 659.816 326.2 659.819 326.169 659.819Z" fill="#26CEC9"/>
<path d="M322.301 645.068C314.686 630.928 332.276 580.851 333.029 578.727L334.458 579.232C334.276 579.747 316.338 630.795 323.637 644.35L322.301 645.068Z" fill="#26CEC9"/>
<path d="M344.52 562.816C344.52 562.816 332.666 567.127 333.744 578.98C333.744 578.98 347.752 573.591 344.52 562.816Z" fill="#FAAD16"/>
<path d="M344.397 591.92C344.397 591.92 331.881 590.364 327.447 601.41C327.447 601.41 342.372 602.986 344.397 591.92Z" fill="#FAAD16"/>
<path d="M317.938 582.719C317.938 582.719 315.383 595.069 326.037 600.375C326.037 600.375 328.806 585.626 317.938 582.719Z" fill="#FAAD16"/>
<path d="M337.722 614.522C337.722 614.522 325.12 615.033 322.55 626.653C322.55 626.653 337.531 625.77 337.722 614.522Z" fill="#FAAD16"/>
<path d="M310.117 609.77C310.117 609.77 309.614 622.371 320.991 625.865C320.991 625.865 321.313 610.861 310.117 609.77Z" fill="#FAAD16"/>
<path d="M344.229 684.189C344.229 687.994 334.976 691.079 323.561 691.079C312.147 691.079 302.893 687.994 302.893 684.189C302.893 680.384 312.147 677.299 323.561 677.299C334.976 677.299 344.229 680.384 344.229 684.189Z" fill="#CCCCCC"/>
<path d="M335.176 685.655H311.835C310.794 685.655 309.901 684.909 309.714 683.885L303.571 650.096H343.44L337.297 683.885C337.11 684.909 336.217 685.655 335.176 685.655Z" fill="#005AFF"/>
<path d="M343.192 651.175H304.899C301.798 651.175 299.263 648.637 299.263 645.538V644.959C299.263 641.858 301.799 639.321 304.899 639.321H343.192C346.291 639.321 348.828 641.858 348.828 644.959V645.538C348.828 648.637 346.291 651.175 343.192 651.175Z" fill="#005AFF"/>
<path d="M510.159 649.217C510.159 651.6 488.735 653.531 462.309 653.531C435.881 653.531 414.459 651.6 414.459 649.217C414.459 646.833 435.881 644.903 462.309 644.903C488.735 644.903 510.159 646.833 510.159 649.217Z" fill="#CCCCCC"/>
<path d="M492.219 506.232C492.219 506.232 503.051 523.931 501.515 526.866C499.981 529.801 470.697 531.758 470.697 531.758L471.319 526.922C471.319 526.922 492.494 524.291 492.993 523.469C493.493 522.646 482.876 506.097 482.876 506.097L492.219 506.232Z" fill="#D19474"/>
<path d="M500.555 519.814L492.104 522.515L486.178 508.637L494.464 506.66L500.555 519.814Z" fill="#FAAF3A"/>
<path d="M420.159 475.708L421.03 474.532L415.162 470.188L414.292 471.362L420.159 475.708Z" fill="#00006C"/>
<path d="M503.269 541.611L508.335 534.769C509.23 533.559 508.975 531.853 507.766 530.957L438.051 479.333L429.742 490.556L499.456 542.179C500.666 543.076 502.372 542.82 503.269 541.611Z" fill="#0095FF"/>
<path d="M438.04 479.35L420.069 472.261L417.749 475.394L429.729 490.573L438.04 479.35Z" fill="#0095FF"/>
<path d="M458.182 511.615L466.48 500.41L438.038 479.35L429.742 490.556L458.182 511.615Z" fill="#00006C"/>
<path d="M503.269 541.61L508.322 534.786C509.218 533.576 508.963 531.868 507.754 530.973L500.463 525.573L492.165 536.778L499.456 542.178C500.666 543.074 502.372 542.819 503.269 541.61Z" fill="#00006C"/>
<path d="M485.17 493.425C488.307 493.425 492.488 498.208 491.558 505.991C490.63 513.774 487.493 531.547 487.493 531.547H465.77C465.77 531.547 462.401 500.531 464.958 498.091C467.513 495.653 470.649 493.425 470.649 493.425H485.17Z" fill="#FAAF3A"/>
<path d="M464.163 511.655C464.163 511.655 449.662 525.918 446.672 524.492C443.682 523.066 433.76 499.166 433.76 499.166L437.486 498.404C437.486 498.404 448.121 515.703 448.961 516.172C449.802 516.642 463.955 502.313 463.955 502.313L464.163 511.655Z" fill="#D19474"/>
<path d="M474.598 493.003C466.936 489.261 459.205 505.203 449.443 515.051L452.916 522.802L475.748 501.242C475.748 501.242 476.218 493.794 474.598 493.003Z" fill="#FAAF3A"/>
<path d="M462.401 471.258C462.401 471.258 460.049 478.127 463.999 485.434C464.239 485.88 467.302 485.373 468.334 486.534C469.367 487.696 470.881 492.748 470.881 492.748L476.341 481.016L468.334 468.238L462.401 471.258Z" fill="#D19474"/>
<path d="M466.116 463.58C468.957 462.473 471.519 461.624 473.054 461.85C474.938 462.125 477.83 463.777 480.124 465.937C481.539 467.271 483.877 466.786 485.309 467.831C486.468 468.677 486.716 471.023 487.904 472.236C490.484 474.87 493.442 474.394 494.478 476.486C495.783 479.122 492.977 481.092 493.833 485.315C494.32 487.715 495.182 486.798 496.621 490.534C498.252 494.771 494.062 496.467 495.996 498.091C497.504 499.358 500.257 499.508 501.015 500.788C501.926 502.325 501.568 505.392 499.391 506.396C497.784 507.137 495.753 507.016 494.312 507.616C492.206 508.496 493.031 510.08 490.653 511.509C489.04 512.477 484.766 512.837 483.509 511.101C482.192 509.283 483.362 507.513 482.114 506.455C480.495 505.081 477.72 507.395 476.19 506.107C474.58 504.749 476.59 501.272 474.913 499.833C473.421 498.556 470.686 500.327 470.035 499.369C469.277 498.256 468.541 495.782 469.023 492.052C469.296 489.941 471.164 490.797 469.395 485.546C468.168 481.904 469.734 480.464 468.523 478.344C467.424 476.414 466.361 474.707 464.806 473.813C461.164 471.721 461.184 472.995 460.328 469.399C459.579 466.264 463.546 464.583 466.116 463.58Z" fill="black"/>
<path d="M466.821 477.513C466.794 477.312 466.872 477.113 467.033 476.986C467.583 476.55 468.916 475.723 469.819 477.083C470.808 478.577 469.367 480.497 468.008 481.026C467.667 481.16 467.291 480.926 467.241 480.563L466.821 477.513Z" fill="#D19474"/>
<path d="M475.993 531.547H486.795C486.795 531.547 494.466 540.491 493.416 548.564C492.302 557.143 490.735 644.332 490.735 644.332L483.804 644.196L478.193 575.263L475.993 531.547Z" fill="#D19474"/>
<path d="M484.145 550.067C480.445 560.567 465.783 644.225 465.783 644.225H458.71L468.189 531.973L484.145 550.067Z" fill="#D19474"/>
<path d="M487.491 531.547C487.491 531.547 494.464 537.472 494.464 547.23C494.464 557.083 492.75 582.646 493.184 588.872C493.213 589.283 492.89 589.628 492.476 589.628H462.059C461.535 589.628 461.124 589.183 461.167 588.662L465.769 531.547H487.491Z" fill="#005AFF"/>
<path d="M478.656 647.14C480.543 646.366 482.505 645.369 483.804 644.196C484.068 643.957 484.326 643.75 484.578 643.568L486.876 644.333C486.876 644.333 482.34 647.676 478.656 647.14Z" fill="#D19474"/>
<path d="M473.951 648.751C474.955 648.469 476.769 647.915 478.657 647.141C481.273 647.521 483.704 645.947 484.893 645.001C485.434 644.571 486.096 644.333 486.785 644.333H490.734V649.319C490.734 649.944 490.317 650.451 489.801 650.451H488.385C487.89 650.451 487.488 650.048 487.488 649.552V648.234C487.488 648.234 486.497 649.457 484.377 650.283C484.073 650.401 483.746 650.451 483.42 650.451H473.143V649.823C473.143 649.324 473.47 648.886 473.951 648.751Z" fill="black"/>
<path d="M453.602 647.14C455.489 646.366 457.45 645.369 458.749 644.196C459.013 643.957 459.27 643.75 459.521 643.568L465.678 644.333C465.678 644.333 457.286 647.676 453.602 647.14Z" fill="#D19474"/>
<path d="M448.894 648.751C449.898 648.469 451.712 647.915 453.601 647.141C456.502 647.562 460.288 645.579 461.766 644.715C462.194 644.466 462.678 644.333 463.174 644.333H465.678V649.319C465.678 649.944 465.259 650.451 464.743 650.451H463.329C462.832 650.451 462.431 650.048 462.431 649.552V648.234C462.431 648.234 461.44 649.457 459.32 650.283C459.016 650.401 458.689 650.451 458.363 650.451H448.086V649.823C448.086 649.324 448.414 648.886 448.894 648.751Z" fill="black"/>
<path d="M434.794 494.474C435.758 495.22 435.779 492.332 436.378 492.151C436.98 491.972 437.547 498.111 437.487 498.405C436.24 498.568 435.096 499.074 433.76 499.166C433.791 498.902 433.046 498.216 432.513 497.763C432.178 497.48 431.961 497.085 431.904 496.652C431.706 495.146 431.185 491.643 430.578 491.176C429.801 490.579 433.151 493.206 434.794 494.474Z" fill="#D19474"/>
<path d="M534.294 160.357C534.294 160.357 536.017 158.721 537.273 156.849C538.529 154.977 561.968 156.849 561.968 156.849C561.968 156.849 562.55 158.924 563.983 160.528C565.779 162.538 550.978 171.919 550.978 171.919L534.294 160.357Z" fill="#005AFF"/>
<path d="M550.978 88.2131C550.978 88.2131 546.684 87.1831 543.937 89.2431C541.189 91.303 542.706 90.9597 541.046 91.9045C539.386 92.8493 534.922 94.7376 534.578 97.914C534.235 101.09 535.695 102.98 535.437 105.383C535.18 107.788 530.272 109.311 530.629 114.226C530.858 117.374 534.065 117.947 534.065 117.947L547.342 118.075L550.978 88.2131Z" fill="black"/>
<path d="M550.163 95.3805C550.163 95.3805 546.198 86.638 554.669 86.7516C563.14 86.8664 561.538 97.1688 561.767 99.687C561.995 102.205 573.041 109.674 566.819 116.772C566.276 117.392 565.816 118.074 564.99 118.074H553.511L550.163 95.3805Z" fill="black"/>
<path d="M529.037 134.054C529.037 134.054 521.026 149.231 520.115 149.494C519.248 149.744 504.596 146.263 503.16 145.92C502.9 145.708 502.574 145.502 502.168 145.307C502.168 145.307 500.896 144.738 498.379 142.095C495.897 139.489 497.559 143.248 497.521 143.353C497.107 144.507 494.633 139.395 494.633 139.395C494.519 139.215 494.279 139.167 494.106 139.29C493.466 139.752 491.926 140.793 492.008 141.204C493.233 147.43 498.512 148.257 499.893 148.875C500.224 149.023 500.56 149.112 500.892 149.155C503.539 150.267 520.128 157.151 522.953 156.132C526.023 155.025 534.979 138.534 534.979 138.534L529.037 134.054Z" fill="#D19474"/>
<path d="M544.183 119.291C544.183 119.291 537.956 119.607 534.866 122.353C531.775 125.101 526.509 137.848 526.509 137.848L533.416 142.14L536.596 136.117L544.183 119.291Z" fill="#FAAF3A"/>
<path d="M605.269 139.29C605.096 139.165 604.855 139.215 604.741 139.396C604.741 139.396 602.268 144.507 601.854 143.353C601.817 143.248 603.479 139.49 600.997 142.096C598.48 144.739 597.208 145.307 597.208 145.307C596.801 145.501 596.475 145.708 596.216 145.92C594.778 146.263 580.126 149.746 579.258 149.495C578.348 149.231 570.339 134.054 570.339 134.054L564.395 138.534C564.395 138.534 573.352 155.026 576.423 156.133C579.246 157.151 595.836 150.268 598.483 149.155C598.814 149.113 599.152 149.023 599.481 148.875C600.863 148.257 606.143 147.43 607.367 141.204C607.448 140.793 605.91 139.752 605.269 139.29Z" fill="#D19474"/>
<path d="M555.193 119.291C555.193 119.291 561.417 119.607 564.508 122.353C567.599 125.101 572.865 137.848 572.865 137.848L565.958 142.14L562.778 136.117L555.193 119.291Z" fill="#FAAF3A"/>
<path d="M555.065 119.283L549.652 119.128H549.621H549.589L544.177 119.283C541.084 119.283 535.626 127.962 536.541 135.632C537.457 143.301 537.273 156.85 537.273 156.85H549.589H549.652H561.968C561.968 156.85 561.783 143.301 562.699 135.632C563.616 127.962 558.157 119.283 555.065 119.283Z" fill="#FAAF3A"/>
<path d="M546.156 114.226C546.156 114.226 546.071 119.293 544.182 119.293C544.182 119.293 545.641 123.585 549.333 123.328C553.025 123.07 555.171 119.034 555.171 119.034C555.171 119.034 553.373 118.26 552.683 113.539L546.156 114.226Z" fill="#B98567"/>
<path d="M555.871 101.949C554.97 98.4289 549.433 92.8911 549.433 92.8911C549.433 92.8911 544.837 101.779 541.687 103.541C541.687 103.541 541.688 103.554 541.69 103.574C540.969 103.464 540.04 103.576 539.758 104.753C539.36 106.407 541.179 107.66 542.597 107.782C543.649 111.567 545.726 116.514 549.404 116.514C555.356 116.514 556.941 106.13 555.871 101.949Z" fill="#D19474"/>
<path d="M569.326 171.403C569.326 171.403 583.772 171.929 584.259 173.26C584.744 174.59 585.029 178.137 583.914 178.25C582.798 178.365 569.526 179.653 567.123 178.65C564.719 177.649 569.326 171.403 569.326 171.403Z" fill="black"/>
<path d="M510.506 159.867C511.155 157.778 513.45 154.069 517.823 155.094C522.195 156.119 568.733 169.758 569.567 171.632C570.399 173.505 569.879 179.233 567.485 179.026C565.09 178.817 513.072 168.752 511.095 166.045C509.397 163.721 510.071 161.259 510.506 159.867Z" fill="#005AFF"/>
<path d="M531.376 171.403C531.376 171.403 516.929 171.929 516.443 173.26C515.958 174.59 515.673 178.137 516.788 178.25C517.903 178.365 531.174 179.653 533.579 178.65C535.982 177.649 531.376 171.403 531.376 171.403Z" fill="black"/>
<path d="M590.197 159.867C589.546 157.778 587.252 154.069 582.88 155.094C578.507 156.119 531.97 169.758 531.136 171.632C530.302 173.505 530.823 179.233 533.218 179.026C535.613 178.817 587.63 168.752 589.607 166.045C591.306 163.721 590.631 161.259 590.197 159.867Z" fill="#005AFF"/>
<path d="M701.906 655.185C701.906 659.83 674.357 663.597 640.375 663.597C606.393 663.597 578.843 659.83 578.843 655.185C578.843 650.54 606.393 646.775 640.375 646.775C674.357 646.775 701.906 650.54 701.906 655.185Z" fill="#E6E6E6"/>
<path d="M677.828 657.592H603.682C594.991 657.592 587.945 650.549 587.945 641.858V467.413C587.945 458.722 594.991 451.678 603.682 451.678H677.828C686.519 451.678 693.565 458.722 693.565 467.413V641.858C693.565 650.549 686.519 657.592 677.828 657.592Z" fill="#00006C"/>
<path d="M679.545 645.532H601.926C597.903 645.532 594.642 642.269 594.642 638.247V469.731C594.642 465.709 597.903 462.446 601.926 462.446H679.545C683.569 462.446 686.829 465.709 686.829 469.731V638.247C686.829 642.269 683.569 645.532 679.545 645.532Z" fill="#CCCCCC"/>
<path d="M648.49 458.138H632.981C632.39 458.138 631.904 457.654 631.904 457.061C631.904 456.468 632.39 455.985 632.981 455.985H648.49C649.082 455.985 649.567 456.468 649.567 457.061C649.567 457.654 649.082 458.138 648.49 458.138Z" fill="white"/>
<path d="M676.199 622.512H605.597C603.551 622.512 601.892 620.853 601.892 618.807V542.22C601.892 540.174 603.551 538.515 605.597 538.515H676.199C678.246 538.515 679.904 540.174 679.904 542.22V618.807C679.904 620.853 678.246 622.512 676.199 622.512Z" fill="#F8F7F8"/>
<path d="M673.505 598.669H608.937C607.876 598.669 607.01 597.802 607.01 596.742V596.545C607.01 595.486 607.876 594.619 608.937 594.619H673.505C674.563 594.619 675.431 595.486 675.431 596.545V596.742C675.431 597.802 674.563 598.669 673.505 598.669Z" fill="#CCCCCC"/>
<path d="M673.505 606.627H608.937C607.876 606.627 607.01 605.76 607.01 604.7V604.503C607.01 603.444 607.876 602.577 608.937 602.577H673.505C674.563 602.577 675.431 603.444 675.431 604.503V604.7C675.431 605.76 674.563 606.627 673.505 606.627Z" fill="#CCCCCC"/>
<path d="M636.33 614.583H608.935C607.876 614.583 607.01 613.717 607.01 612.656V612.459C607.01 611.4 607.876 610.535 608.935 610.535H636.33C637.39 610.535 638.258 611.4 638.258 612.459V612.656C638.258 613.717 637.39 614.583 636.33 614.583Z" fill="#CCCCCC"/>
<path d="M665.543 587.193H616.889C611.455 587.193 607.009 582.747 607.009 577.313V555.87C607.009 550.435 611.455 545.99 616.889 545.99H665.543C670.977 545.99 675.423 550.435 675.423 555.87V577.313C675.423 582.747 670.977 587.193 665.543 587.193Z" fill="#0095FF"/>
<path d="M676.213 488.781H605.585C603.531 488.781 601.869 487.116 601.869 485.064V472.981C601.869 470.929 603.531 469.265 605.585 469.265H676.213C678.266 469.265 679.929 470.929 679.929 472.981V485.064C679.929 487.116 678.266 488.781 676.213 488.781Z" fill="#F8F7F8"/>
<path d="M612.316 485.296C608.85 485.296 606.043 482.488 606.043 479.023C606.043 475.559 608.85 472.75 612.316 472.75C615.78 472.75 618.588 475.559 618.588 479.023C618.588 482.488 615.78 485.296 612.316 485.296Z" fill="#FAAD16"/>
<path d="M675.305 483.453H663.391C663.005 483.453 662.693 483.142 662.693 482.758C662.693 482.371 663.005 482.06 663.391 482.06H675.305C675.69 482.06 676.001 482.371 676.001 482.758C676.001 483.142 675.69 483.453 675.305 483.453Z" fill="#0095FF"/>
<path d="M675.305 475.512H663.391C663.005 475.512 662.693 475.201 662.693 474.815C662.693 474.43 663.005 474.118 663.391 474.118H675.305C675.69 474.118 676.001 474.43 676.001 474.815C676.001 475.201 675.69 475.512 675.305 475.512Z" fill="#0095FF"/>
<path d="M675.305 479.481H663.391C663.005 479.481 662.693 479.17 662.693 478.786C662.693 478.4 663.005 478.088 663.391 478.088H675.305C675.69 478.088 676.001 478.4 676.001 478.786C676.001 479.17 675.69 479.481 675.305 479.481Z" fill="#0095FF"/>
<path d="M675.903 531.959H605.252C603.206 531.959 601.547 530.3 601.547 528.254V499.42C601.547 497.374 603.206 495.715 605.252 495.715H675.903C677.95 495.715 679.608 497.374 679.608 499.42V528.254C679.608 530.3 677.95 531.959 675.903 531.959Z" fill="#F8F7F8"/>
<path d="M679.585 645.531H601.573V634.221C601.573 632.174 603.231 630.516 605.278 630.516H675.88C677.925 630.516 679.585 632.174 679.585 634.221V645.531Z" fill="#F8F7F8"/>
<path d="M675.102 645.532H606.688V645.166C606.688 641.261 609.883 638.065 613.789 638.065H668.001C671.907 638.065 675.102 641.261 675.102 645.166V645.532Z" fill="#26CEC9"/>
<path d="M670.339 511.294H610.82C610.339 511.294 609.95 510.903 609.95 510.422C609.95 509.941 610.339 509.55 610.82 509.55H670.339C670.82 509.55 671.209 509.941 671.209 510.422C671.209 510.903 670.82 511.294 670.339 511.294Z" fill="#CCCCCC"/>
<path d="M661.615 515.547H610.819C610.337 515.547 609.948 515.158 609.948 514.676C609.948 514.194 610.337 513.804 610.819 513.804H661.615C662.097 513.804 662.486 514.194 662.486 514.676C662.486 515.158 662.097 515.547 661.615 515.547Z" fill="#CCCCCC"/>
<path d="M659.547 505.15H621.609C620.686 505.15 619.936 504.4 619.936 503.476C619.936 502.551 620.686 501.803 621.609 501.803H659.547C660.471 501.803 661.219 502.551 661.219 503.476C661.219 504.4 660.471 505.15 659.547 505.15Z" fill="#0095FF"/>
<path d="M647.552 525.872H633.605C632.07 525.872 630.815 524.616 630.815 523.082C630.815 521.548 632.07 520.292 633.605 520.292H647.552C649.085 520.292 650.341 521.548 650.341 523.082C650.341 524.616 649.085 525.872 647.552 525.872Z" fill="#FAAD16"/>
<path d="M685.655 491.085L682.401 495.727C681.994 496.308 682.053 497.052 682.533 497.389L698.036 508.254L698.446 507.671C698.771 507.208 698.75 506.586 698.392 506.146C696.893 504.307 693.08 499.357 692.194 495.481C690.74 489.124 685.655 491.085 685.655 491.085Z" fill="black"/>
<path d="M688.077 367.999C688.077 367.999 691.083 379.315 681.464 384.642C680.718 385.056 676.552 381.945 676.552 381.945C676.552 381.945 674.688 384.22 673.994 386.072C673.735 386.766 676.482 388.926 676.196 389.561C673.049 396.514 658.466 385.844 663.383 383.531C667.599 381.547 669.452 376.836 669.452 376.836C669.452 376.836 680.343 361.771 688.077 367.999Z" fill="#D19474"/>
<path d="M710.919 492.61L710.145 498.224C710.047 498.927 710.44 499.563 711.02 499.643L729.776 502.229L729.874 501.524C729.95 500.962 729.649 500.418 729.129 500.192C726.954 499.241 721.303 496.578 718.743 493.534C714.547 488.543 710.919 492.61 710.919 492.61Z" fill="black"/>
<path d="M676.493 369.953C676.493 369.953 683.094 365.914 686.689 367.667C688.517 368.559 688.468 370.627 688.468 370.627C694.256 370.147 697.033 365.008 695.872 362.429C695.043 360.588 693.776 359.321 690.275 360.141C690.275 360.141 689.031 356.342 685.147 356.193C681.262 356.043 679.771 357.906 679.771 357.906C679.771 357.906 675.899 354.851 672.696 356.49C670.437 357.646 669.453 362.374 669.453 362.374C669.453 362.374 665.964 363.164 665.468 365.801C664.798 369.376 665.917 370.72 665.917 370.72C665.917 370.72 659.946 378.424 669.045 380.402C670.758 380.775 677.916 376.884 675.12 371.342L676.493 369.953Z" fill="black"/>
<path d="M701.999 452.58C702.12 452.502 709.473 487.709 710.919 492.608L718.143 492.879C718.143 492.879 716.44 461.106 711.197 445.358C711.15 445.218 704.013 445.898 701.999 452.58Z" fill="#FAAF3A"/>
<path d="M650.344 426.919C650.344 426.919 646.545 445.473 651.192 449.632C654.965 453.008 677.81 452.81 696.881 450.674C696.881 450.674 686.607 486.065 685.656 491.084L691.961 494.623C691.961 494.623 717.392 451.214 712.978 437.761C711.581 433.506 679.776 431.187 679.776 431.187L668.672 416.756L650.344 426.919Z" fill="#FAAF3A"/>
<path d="M678.569 370.129C678.672 369.947 678.672 369.726 678.567 369.546C678.202 368.92 677.237 367.629 675.863 368.592C674.355 369.649 675.012 372.027 676.114 373.044C676.389 373.3 676.837 373.216 677.021 372.889L678.569 370.129Z" fill="#D19474"/>
<path d="M663.992 383.213C663.992 383.213 653.922 388.523 652.059 406.55C650.115 425.378 649.442 430.222 649.7 430.611C650.478 431.781 679.282 431.441 679.775 431.187C681.824 430.13 681.331 393.959 676.197 389.096C675.728 388.651 669.752 388.279 663.992 383.213Z" fill="#005AFF"/>
<path d="M711.711 436.224C711.582 436.224 711.453 436.19 711.335 436.114C711.013 435.907 710.917 435.477 711.124 435.152L725.418 412.804C725.625 412.479 726.055 412.384 726.38 412.593C726.705 412.8 726.799 413.231 726.592 413.556L712.3 435.903C712.165 436.111 711.942 436.224 711.711 436.224Z" fill="#0095FF"/>
<path d="M711.713 436.224C711.677 436.224 711.641 436.222 711.606 436.215L685.405 432.176C685.025 432.118 684.764 431.762 684.823 431.38C684.88 431.001 685.237 430.742 685.618 430.798L711.818 434.838C712.2 434.898 712.459 435.253 712.401 435.633C712.348 435.978 712.05 436.224 711.713 436.224Z" fill="#0095FF"/>
<path d="M670.052 407.209L660.452 404.974C660.452 404.974 662.085 424.997 664.1 427.375C667.756 431.686 690.107 430.723 690.107 430.723L690.055 426.516C689.649 427.575 671.559 422.979 670.724 422.115C669.689 421.043 670.052 407.209 670.052 407.209Z" fill="#D19474"/>
<path d="M659.785 407.12C659.785 407.12 661.156 390.655 667.037 391.929C672.918 393.203 670.633 408.202 670.633 408.202C670.633 408.202 663.342 408.773 659.785 407.12Z" fill="#005AFF"/>
<path d="M690.107 430.723C685.028 431.63 686.43 427.257 690.055 426.516C691.806 426.158 697.938 422.4 703.406 427.531C703.768 427.87 703.008 429.931 702.711 430.815C702.632 431.055 702.367 431.173 702.133 431.078C702.133 431.078 699.773 429.09 698.573 429.431C698.447 429.467 698.417 431.2 696.677 431.068C692.377 430.745 690.107 430.723 690.107 430.723Z" fill="#D19474"/>
<path d="M241.088 654.844C241.088 660.819 195.829 665.663 140 665.663C84.1716 665.663 38.9138 660.819 38.9138 654.844C38.9138 648.869 84.1716 644.025 140 644.025C195.829 644.025 241.088 648.869 241.088 654.844Z" fill="#E6E6E6"/>
<path d="M22.9392 438.667C18.7242 441.715 16.7506 448.067 18.2734 451.243C19.9061 454.643 23.6432 456.037 24.9832 458.994C27.153 463.777 17.4336 469.579 19.4911 474.387C20.9188 477.718 25.8896 477.601 28.7054 481.338C32.0745 485.806 26.7838 490.105 28.8598 496.538C31.357 504.275 45.1161 509.215 56.0051 501.398C64.8588 495.041 69.6902 481.779 66.536 475.743C63.0594 469.086 55.395 470.982 52.8188 464.384C50.2327 457.763 56.0903 450.985 53.1918 447.111C50.6909 443.769 44.2739 447.497 39.1116 443.25C35.9327 440.633 35.6165 439.509 31.8621 437.621C29.4502 436.41 25.9106 436.519 22.9392 438.667Z" fill="#26CEC9"/>
<path d="M65.0526 511.451C64.9563 511.449 64.8587 511.417 64.7747 511.352C42.7386 494.393 34.5469 457.754 34.4666 457.385C34.4024 457.088 34.5666 456.79 34.8346 456.719C35.1039 456.648 35.3731 456.829 35.4385 457.126C35.5176 457.49 43.6229 493.73 65.3453 510.448C65.5701 510.621 65.6281 510.964 65.47 511.215C65.3712 511.372 65.2132 511.453 65.0526 511.451Z" fill="#FFFF00"/>
<path d="M70.6149 511.611C71.3794 513.524 71.9215 515.698 72.1772 517.992C72.9034 524.487 71.2868 530.712 67.7423 535.07C64.4078 539.169 59.0899 541.875 53.8621 542.129C50.2522 542.305 47.2006 541.307 45.2702 539.318C42.5866 536.554 42.6545 532.523 42.72 528.625C42.7817 524.924 42.8398 521.433 40.4957 519.465C38.0109 517.38 34.3331 518.305 31.0887 519.121C27.9136 519.919 24.915 520.672 23.3601 518.54C22.0597 516.757 22.8019 514.328 23.5886 511.759C24.4766 508.853 25.4781 505.547 23.9937 502.359C23.2156 500.689 22.1585 499.856 21.0408 498.976C19.7119 497.927 18.3349 496.846 17.6606 494.357C16.7813 491.125 17.4951 487.472 19.4785 485.053C22.6574 481.171 28.268 480.999 30.7936 483.445C32.2978 484.901 32.3447 486.846 32.3855 488.561C32.4201 490.072 32.4497 491.374 33.3698 492.229C34.9839 493.73 37.9986 492.491 40.9132 491.289C44.0624 489.991 47.3179 488.65 49.3742 490.488C50.8203 491.781 50.7178 493.725 50.6092 495.785C50.5029 497.803 50.3918 499.892 51.6787 501.669C53.2471 503.833 55.6356 503.792 58.402 503.745C60.9473 503.702 63.8323 503.652 66.3443 505.521C68.0782 506.811 69.559 508.962 70.6149 511.611ZM44.5144 536.257C44.8466 537.089 45.3073 537.85 45.9495 538.509C47.6575 540.271 50.5264 541.187 53.8189 541.026C58.7886 540.783 63.8372 538.218 67.0001 534.33C70.3519 530.21 71.8796 524.305 71.1892 518.127C70.6112 512.965 68.5426 508.485 65.7885 506.437C63.5347 504.758 60.9338 504.805 58.4193 504.847C55.5158 504.898 52.7729 504.943 50.8994 502.359C49.3717 500.249 49.5001 497.845 49.6113 495.72C49.7101 493.875 49.7928 492.28 48.7468 491.345C47.1339 489.902 44.1501 491.132 41.2639 492.322C38.0801 493.632 34.7876 494.989 32.7264 493.074C31.4629 491.898 31.4247 490.215 31.3876 488.587C31.3481 486.954 31.3135 485.412 30.1366 484.274C27.9593 482.166 22.9526 482.453 20.2158 485.794C18.4633 487.931 17.836 491.168 18.6165 494.038C19.1957 496.165 20.3183 497.052 21.6188 498.078C22.7303 498.954 23.99 499.947 24.8792 501.853C26.5662 505.477 25.4386 509.152 24.5334 512.111C23.8072 514.485 23.181 516.538 24.1369 517.848C25.3015 519.445 27.8827 518.794 30.8677 518.044C34.3257 517.175 38.2431 516.191 41.0997 518.586C43.8463 520.895 43.7821 524.834 43.7179 528.646C43.6722 531.306 43.6277 534.034 44.5144 536.257Z" fill="#FAAD16"/>
<path d="M74.6298 546.026L73.7307 546.504C62.302 520.267 33.7649 502.927 33.4771 502.754L33.9526 501.784C34.2428 501.958 63.0591 519.463 74.6298 546.026Z" fill="#FAAD16"/>
<path d="M218.966 654.973H64.6029C56.4186 654.973 49.7829 648.337 49.7829 640.153V411.91C49.7829 403.726 56.4186 397.09 64.6029 397.09H218.966C227.15 397.09 233.786 403.726 233.786 411.91V640.153C233.786 648.337 227.15 654.973 218.966 654.973Z" fill="#00006C"/>
<path d="M214.148 643.82H69.4204C63.9642 643.82 59.5404 639.398 59.5404 633.94V418.122C59.5404 412.665 63.9642 408.242 69.4204 408.242H214.148C219.604 408.242 224.028 412.665 224.028 418.122V633.94C224.028 639.398 219.604 643.82 214.148 643.82Z" fill="#CCCCCC"/>
<path d="M145.103 402.803C145.103 403.959 144.166 404.896 143.012 404.896C141.857 404.896 140.921 403.959 140.921 402.803C140.921 401.649 141.857 400.714 143.012 400.714C144.166 400.714 145.103 401.649 145.103 402.803Z" fill="white"/>
<path d="M139.102 643.82H66.4678V589.23C66.4678 586.862 68.3858 584.943 70.7533 584.943H134.815C137.183 584.943 139.102 586.862 139.102 589.23V643.82Z" fill="#F8F7F8"/>
<path d="M133.143 640.949H73.0256C72.0388 640.949 71.2336 640.141 71.2336 639.156V638.97C71.2336 637.985 72.0388 637.177 73.0256 637.177H133.143C134.13 637.177 134.935 637.985 134.935 638.97V639.156C134.935 640.141 134.13 640.949 133.143 640.949Z" fill="#CCCCCC"/>
<path d="M125.047 630.265H81.1111C75.6771 630.265 71.2311 625.817 71.2311 620.385V601.782C71.2311 596.348 75.6771 591.902 81.1111 591.902H125.047C130.481 591.902 134.927 596.348 134.927 601.782V620.385C134.927 625.817 130.481 630.265 125.047 630.265Z" fill="#FAAD16"/>
<path d="M217.1 643.82H144.466V589.23C144.466 586.862 146.384 584.943 148.752 584.943H212.814C215.181 584.943 217.1 586.862 217.1 589.23V643.82Z" fill="#F8F7F8"/>
<path d="M211.14 640.949H151.023C150.036 640.949 149.23 640.141 149.23 639.156V638.97C149.23 637.985 150.036 637.177 151.023 637.177H211.14C212.126 637.177 212.932 637.985 212.932 638.97V639.156C212.932 640.141 212.126 640.949 211.14 640.949Z" fill="#CCCCCC"/>
<path d="M203.046 630.265H159.11C153.676 630.265 149.23 625.817 149.23 620.385V601.782C149.23 596.348 153.676 591.902 159.11 591.902H203.046C208.48 591.902 212.926 596.348 212.926 601.782V620.385C212.926 625.817 208.48 630.265 203.046 630.265Z" fill="#FFD220"/>
<path d="M212.119 494.609H71.4496C68.7215 494.609 66.5096 492.397 66.5096 489.669V451.132C66.5096 448.403 68.7215 446.192 71.4496 446.192H212.119C214.847 446.192 217.059 448.403 217.059 451.132V489.669C217.059 492.397 214.847 494.609 212.119 494.609Z" fill="#F8F7F8"/>
<path d="M134.162 579.063H71.4078C68.681 579.063 66.4678 576.852 66.4678 574.123V505.8C66.4678 503.072 68.681 500.86 71.4078 500.86H134.162C136.89 500.86 139.102 503.072 139.102 505.8V574.123C139.102 576.852 136.89 579.063 134.162 579.063Z" fill="#F8F7F8"/>
<path d="M133.143 556.864H73.0256C72.0388 556.864 71.2336 556.059 71.2336 555.073V554.888C71.2336 553.902 72.0388 553.095 73.0256 553.095H133.143C134.128 553.095 134.935 553.902 134.935 554.888V555.073C134.935 556.059 134.13 556.864 133.143 556.864Z" fill="#CCCCCC"/>
<path d="M133.143 564.275H73.0256C72.0388 564.275 71.2336 563.468 71.2336 562.481V562.296C71.2336 561.311 72.0388 560.503 73.0256 560.503H133.143C134.13 560.503 134.935 561.311 134.935 562.296V562.481C134.935 563.468 134.128 564.275 133.143 564.275Z" fill="#CCCCCC"/>
<path d="M98.532 571.684H73.0244C72.0388 571.684 71.2311 570.878 71.2311 569.891V569.706C71.2311 568.721 72.0388 567.914 73.0244 567.914H98.532C99.5188 567.914 100.325 568.721 100.325 569.706V569.891C100.325 570.878 99.5188 571.684 98.532 571.684Z" fill="#CCCCCC"/>
<path d="M125.047 546.181H81.1111C75.6771 546.181 71.2311 541.734 71.2311 536.301V517.699C71.2311 512.264 75.6771 507.819 81.1111 507.819H125.047C130.481 507.819 134.927 512.264 134.927 517.699V536.301C134.927 541.734 130.481 546.181 125.047 546.181Z" fill="#0095FF"/>
<path d="M212.16 579.063H149.406C146.679 579.063 144.466 576.852 144.466 574.123V505.8C144.466 503.072 146.679 500.86 149.406 500.86H212.16C214.889 500.86 217.1 503.072 217.1 505.8V574.123C217.1 576.852 214.889 579.063 212.16 579.063Z" fill="#F8F7F8"/>
<path d="M211.14 556.864H151.023C150.036 556.864 149.23 556.059 149.23 555.073V554.888C149.23 553.902 150.036 553.095 151.023 553.095H211.14C212.126 553.095 212.932 553.902 212.932 554.888V555.073C212.932 556.059 212.126 556.864 211.14 556.864Z" fill="#CCCCCC"/>
<path d="M211.14 564.275H151.023C150.036 564.275 149.23 563.468 149.23 562.481V562.296C149.23 561.311 150.036 560.503 151.023 560.503H211.14C212.126 560.503 212.932 561.311 212.932 562.296V562.481C212.932 563.468 212.126 564.275 211.14 564.275Z" fill="#CCCCCC"/>
<path d="M176.531 571.684H151.024C150.039 571.684 149.23 570.878 149.23 569.891V569.706C149.23 568.721 150.039 567.914 151.024 567.914H176.531C177.517 567.914 178.324 568.721 178.324 569.706V569.891C178.324 570.878 177.517 571.684 176.531 571.684Z" fill="#CCCCCC"/>
<path d="M203.046 546.181H159.11C153.676 546.181 149.23 541.734 149.23 536.301V517.699C149.23 512.264 153.676 507.819 159.11 507.819H203.046C208.48 507.819 212.926 512.264 212.926 517.699V536.301C212.926 541.734 208.48 546.181 203.046 546.181Z" fill="#26CEC9"/>
<path d="M212.118 440.615H71.3661C68.638 440.615 66.4261 438.403 66.4261 435.675V420.637C66.4261 417.909 68.638 415.697 71.3661 415.697H212.118C214.846 415.697 217.058 417.909 217.058 420.637V435.675C217.058 438.403 214.846 440.615 212.118 440.615Z" fill="#F8F7F8"/>
<path d="M80.3959 435.654C76.2561 435.654 72.8994 432.297 72.8994 428.157C72.8994 424.017 76.2561 420.661 80.3959 420.661C84.5368 420.661 87.8923 424.017 87.8923 428.157C87.8923 432.297 84.5368 435.654 80.3959 435.654Z" fill="#FAAD16"/>
<path d="M209.186 433.524H195.172C194.787 433.524 194.474 433.212 194.474 432.828C194.474 432.441 194.787 432.13 195.172 432.13H209.186C209.571 432.13 209.882 432.441 209.882 432.828C209.882 433.212 209.571 433.524 209.186 433.524Z" fill="#0095FF"/>
<path d="M209.186 424.184H195.172C194.787 424.184 194.474 423.871 194.474 423.487C194.474 423.101 194.787 422.79 195.172 422.79H209.186C209.571 422.79 209.882 423.101 209.882 423.487C209.882 423.871 209.571 424.184 209.186 424.184Z" fill="#0095FF"/>
<path d="M209.186 428.854H195.172C194.787 428.854 194.474 428.543 194.474 428.157C194.474 427.772 194.787 427.459 195.172 427.459H209.186C209.571 427.459 209.882 427.772 209.882 428.157C209.882 428.543 209.571 428.854 209.186 428.854Z" fill="#0095FF"/>
<path d="M182.239 466.941H101.328C100.675 466.941 100.146 466.411 100.146 465.757C100.146 465.103 100.675 464.572 101.328 464.572H182.239C182.894 464.572 183.422 465.103 183.422 465.757C183.422 466.411 182.894 466.941 182.239 466.941Z" fill="#CCCCCC"/>
<path d="M170.381 472.724H101.328C100.675 472.724 100.144 472.194 100.144 471.54C100.144 470.887 100.675 470.355 101.328 470.355H170.381C171.034 470.355 171.565 470.887 171.565 471.54C171.565 472.194 171.034 472.724 170.381 472.724Z" fill="#CCCCCC"/>
<path d="M167.571 458.591H115.999C114.742 458.591 113.723 457.574 113.723 456.316C113.723 455.06 114.742 454.042 115.999 454.042H167.571C168.829 454.042 169.845 455.06 169.845 456.316C169.845 457.574 168.829 458.591 167.571 458.591Z" fill="#0095FF"/>
<path d="M151.264 486.76H132.304C130.219 486.76 128.512 485.053 128.512 482.969C128.512 480.882 130.219 479.175 132.304 479.175H151.264C153.35 479.175 155.057 480.882 155.057 482.969C155.057 485.053 153.35 486.76 151.264 486.76Z" fill="#FAAD16"/>
<path d="M87.6776 200.391C87.6776 200.391 98.5554 208.375 93.776 220.11C93.4043 221.022 86.0288 221.314 86.0288 221.314C86.0288 221.314 85.0482 226.232 85.7633 228.397C86.0313 229.207 88.5347 231.432 88.3111 232.203C87.4726 235.092 71.9585 236.107 74.6989 230.478C77.0504 225.649 77.3505 221.786 77.3505 221.786C77.3505 221.786 76.2341 200.391 87.6776 200.391Z" fill="#D19474"/>
<path d="M64.8089 389.091V395.623C64.8089 396.442 65.356 397.104 66.0315 397.104H87.8515V396.284C87.8515 395.631 87.4205 395.055 86.7919 394.878C84.1589 394.136 77.2873 391.987 73.8861 388.913C68.3089 383.877 64.8089 389.091 64.8089 389.091Z" fill="black"/>
<path d="M107.049 389.091V395.623C107.049 396.442 107.596 397.104 108.271 397.104H130.091V396.284C130.091 395.631 129.66 395.055 129.032 394.878C126.399 394.136 119.527 391.987 116.126 388.913C110.549 383.877 107.049 389.091 107.049 389.091Z" fill="black"/>
<path d="M87.9466 188.76C89.0853 190.362 94.7774 197.85 89.9288 202.468C89.9288 202.468 88.4764 200.573 86.1917 201.095C81.6975 202.122 78.694 210.52 78.694 210.52C79.1744 213.569 79.1744 217.273 77.3392 221.315C77.3392 221.315 68.42 220.069 68.42 209.338C68.42 198.606 80.6972 195.086 82.9288 194.313C84.827 193.656 86.9734 189.897 87.5749 188.785C87.6527 188.641 87.8515 188.627 87.9466 188.76Z" fill="black"/>
<path d="M114.122 243.127C113.511 244.218 104.782 255.738 101.373 259.08C101.243 259.206 101.028 259.165 100.948 259.003L96.2782 249.558L93.6465 250.657C93.6465 250.657 90.7541 252.835 96.9464 263.599C96.9464 263.599 96.9587 263.615 96.9834 263.647L96.3116 264.424C96.3116 264.424 98.6877 268.714 100.154 269.033C102.884 269.626 118.39 246.851 118.39 246.851L114.122 243.127Z" fill="#B98567"/>
<path d="M64.8089 280.348V388.913H73.8874L83.9588 304.434L70.911 274.442L64.8089 280.348Z" fill="#FAAF3A"/>
<path d="M65.1635 280.873C81.505 304.99 107.049 386.721 107.083 389.601L116.241 389.028C116.241 389.028 106.308 301.935 98.3838 276.732C98.3838 276.732 64.8078 280.348 65.1635 280.873Z" fill="#FAAF3A"/>
<path d="M85.5352 253.478C85.5352 253.478 78.7477 235.688 85.492 234.079C92.2376 232.468 97.3455 249.19 97.3455 249.19C97.3455 249.19 90.0541 253.42 85.5352 253.478Z" fill="#005AFF"/>
<path d="M75.7178 228.138C75.7178 228.138 67.305 235.953 64.809 253.479C61.7326 275.074 64.0199 279.729 65.1647 280.874C66.3095 282.019 99.126 281.674 99.6941 281.38C102.055 280.164 94.9899 233.234 86.7611 229.772C86.0757 229.483 82.3559 233.976 75.7178 228.138Z" fill="#36848F"/>
<path d="M80.6837 209.175C80.643 208.938 80.4836 208.74 80.2589 208.653C79.4808 208.355 77.679 207.894 77.143 209.751C76.5539 211.792 78.8633 213.45 80.5861 213.568C81.0196 213.597 81.3605 213.201 81.2889 212.772L80.6837 209.175Z" fill="#D19474"/>
<path d="M86.3453 253.478C86.3453 253.478 90.5863 287.91 95.9795 301.286C96.9675 303.733 100.761 310.009 98.3211 312C98.3211 312 93.7256 314.848 92.6289 312.564C91.5323 310.282 91.5125 303.969 90.8283 303.174C83.5887 294.762 74.9894 253.766 74.9894 253.766L86.3453 253.478Z" fill="#D19474"/>
<path d="M74.6875 255.799C74.6875 255.799 70.9788 237.122 77.8985 236.666C84.8182 236.21 87.0511 253.553 87.0511 253.553C87.0511 253.553 79.152 256.499 74.6875 255.799Z" fill="#20B0AD"/>
<path d="M114.12 243.127C110.416 247.502 116.07 249.513 118.803 246.445C120.125 244.961 125.888 241.102 124.004 232.987C123.88 232.449 121.474 232.03 120.459 231.822C120.185 231.765 119.923 231.954 119.884 232.231C119.884 232.231 119.673 239.684 118.556 238.526C118.455 238.421 118.422 233.023 116.852 237.481C115.26 242 114.12 243.127 114.12 243.127Z" fill="#B98567"/>
<path d="M203.26 126.644C205.289 117.041 198.929 107.006 191.341 102.423C185.494 98.8905 179.918 99.1972 170.196 99.7318C156.684 100.474 148.019 100.95 143.283 107.421C137.082 115.891 140.388 130.845 149.05 138.947C158.411 147.702 171.192 145.805 175.962 145.098C177.13 144.925 180.731 144.389 184.966 143.035C185.79 145.548 188.737 148.678 198.242 148.946C198.242 148.946 195.737 144.407 196.412 137.222C199.679 134.616 202.302 131.179 203.26 126.644Z" fill="#0095FF"/>
<path d="M162.229 122.396C162.229 124.008 160.923 125.313 159.312 125.313C157.7 125.313 156.392 124.008 156.392 122.396C156.392 120.784 157.7 119.478 159.312 119.478C160.923 119.478 162.229 120.784 162.229 122.396Z" fill="white"/>
<path d="M173.679 122.396C173.679 124.008 172.372 125.313 170.76 125.313C169.149 125.313 167.842 124.008 167.842 122.396C167.842 120.784 169.149 119.478 170.76 119.478C172.372 119.478 173.679 120.784 173.679 122.396Z" fill="white"/>
<path d="M185.127 122.396C185.127 124.008 183.82 125.313 182.209 125.313C180.597 125.313 179.291 124.008 179.291 122.396C179.291 120.784 180.597 119.478 182.209 119.478C183.82 119.478 185.127 120.784 185.127 122.396Z" fill="white"/>
<path d="M93.5267 109.093C90.7183 105.76 86.3724 103.998 80.9569 103.998C75.5414 103.998 71.1955 105.76 68.3883 109.093C66.2308 111.656 64.9921 115.193 64.9921 118.795C64.9921 123.837 68.639 130.348 70.5977 133.846C70.9843 134.535 71.2992 135.096 71.4956 135.489C72.5873 137.674 73.1628 142.191 73.1678 142.236C73.2184 142.633 73.5543 142.93 73.9545 142.93H87.9606C88.3595 142.93 88.6967 142.633 88.7461 142.236C88.7522 142.191 89.3253 137.676 90.4195 135.489C90.6158 135.096 90.9308 134.535 91.3161 133.846C93.2748 130.348 96.9218 123.837 96.9218 118.795C96.9218 115.193 95.6843 111.656 93.5267 109.093ZM80.0875 128.044C80.7309 128.095 81.4521 128.086 82.0795 128.024C81.6572 133.095 82.0104 138.907 82.1981 141.345H79.8812C80.1159 139.007 80.5901 133.157 80.0875 128.044ZM89.9329 133.072C89.5315 133.788 89.2055 134.372 89.0017 134.78C88.0532 136.678 87.4851 139.925 87.2702 141.345H83.79C83.5331 138.064 83.2935 132.357 83.7036 127.734C85.2288 127.321 86.2896 126.605 86.9825 125.972C88.2409 124.818 88.9918 123.268 88.9918 121.825C88.9918 120.134 87.9594 118.999 86.4193 118.999C85.6351 118.999 84.9398 119.325 84.3507 119.97C83.2343 121.192 82.5933 123.603 82.2463 126.41C81.5225 126.505 80.6346 126.518 79.8899 126.433C79.512 123.872 78.8302 121.637 77.6743 120.333C76.8913 119.447 75.9366 118.999 74.8387 118.999C73.5963 118.999 72.7627 119.996 72.7627 121.48C72.7627 122.925 73.5346 124.573 74.7794 125.779C75.5377 126.518 76.7295 127.354 78.4696 127.786C78.9649 132.419 78.6265 138.128 78.2893 141.345H74.6436C74.4287 139.925 73.8618 136.678 72.9121 134.78C72.7083 134.372 72.3823 133.788 71.9809 133.072C70.0926 129.7 66.5778 123.423 66.5778 118.795C66.5778 112.699 70.3433 105.582 80.9569 105.582C91.5705 105.582 95.3372 112.699 95.3372 118.795C95.3372 123.423 91.8212 129.7 89.9329 133.072ZM83.895 126.01C84.2037 123.751 84.715 121.922 85.5215 121.039C85.8944 120.631 86.2118 120.584 86.4193 120.584C87.2789 120.584 87.4073 121.362 87.4073 121.825C87.4073 122.602 87.0146 123.792 85.9117 124.804C85.4585 125.217 84.8027 125.676 83.895 126.01ZM78.2362 126.065C77.1568 125.694 76.3948 125.14 75.8835 124.643C74.751 123.543 74.3472 122.288 74.3472 121.48C74.3472 121.146 74.4114 120.584 74.8387 120.584C75.471 120.584 76.0107 120.845 76.4887 121.384C77.3408 122.345 77.8941 124.032 78.2362 126.065Z" fill="#FAAD16"/>
<path d="M87.6616 146.604H74.2533C73.6617 146.604 73.1763 146.119 73.1763 145.528C73.1763 144.936 73.6617 144.452 74.2533 144.452H87.6616C88.2532 144.452 88.7386 144.936 88.7386 145.528C88.7386 146.119 88.2532 146.604 87.6616 146.604Z" fill="#26CEC9"/>
<path d="M87.6616 151.07H74.2533C73.6617 151.07 73.1763 150.587 73.1763 149.996C73.1763 149.403 73.6617 148.919 74.2533 148.919H87.6616C88.2532 148.919 88.7386 149.403 88.7386 149.996C88.7386 150.587 88.2532 151.07 87.6616 151.07Z" fill="#26CEC9"/>
<path d="M75.2515 153.385C75.2515 153.385 77.0015 157.26 81.0868 157.26C85.1722 157.26 86.3393 153.385 86.3393 153.385H75.2515Z" fill="#26CEC9"/>
<path d="M81.0868 95.5634C80.6496 95.5634 80.2939 95.2089 80.2939 94.7717V81.3497C80.2939 80.9126 80.6496 80.5581 81.0868 80.5581C81.5239 80.5581 81.8796 80.9126 81.8796 81.3497V94.7717C81.8796 95.2089 81.5239 95.5634 81.0868 95.5634Z" fill="#FAAD16"/>
<path d="M64.3958 101.178C64.1698 101.178 63.9451 101.081 63.7882 100.895L55.1617 90.6133C54.8802 90.2774 54.9234 89.7785 55.2593 89.4969C55.5928 89.2153 56.0929 89.2598 56.3745 89.5945L65.0022 99.8758C65.2838 100.211 65.2418 100.711 64.9059 100.992C64.7577 101.117 64.5761 101.178 64.3958 101.178Z" fill="#FAAD16"/>
<path d="M55.742 116.452C55.6963 116.452 55.6506 116.449 55.6037 116.441L42.3843 114.11C41.9532 114.034 41.6667 113.621 41.7421 113.19C41.8186 112.76 42.2249 112.475 42.6597 112.549L55.8779 114.88C56.3089 114.956 56.5966 115.366 56.5201 115.797C56.4534 116.181 56.1199 116.452 55.742 116.452Z" fill="#FAAD16"/>
<path d="M105.95 117.026C105.572 117.026 105.238 116.756 105.171 116.372C105.095 115.941 105.383 115.529 105.814 115.453L119.032 113.122C119.463 113.047 119.873 113.335 119.949 113.765C120.025 114.196 119.738 114.607 119.307 114.683L106.088 117.014C106.041 117.022 105.995 117.026 105.95 117.026Z" fill="#FAAD16"/>
<path d="M97.6417 101.553C97.4614 101.553 97.2798 101.494 97.1316 101.369C96.7957 101.088 96.7537 100.587 97.0353 100.253L105.662 89.9701C105.942 89.6342 106.444 89.5897 106.778 89.8713C107.114 90.1529 107.159 90.6531 106.877 90.9877L98.2493 101.272C98.0925 101.458 97.8677 101.553 97.6417 101.553Z" fill="#FAAD16"/>
</g>
</g>
<defs>
<clipPath id="clip0_35_428">
<rect width="741" height="741" fill="white"/>
</clipPath>
</defs>
</svg>
